<svg xmlns="http://www.w3.org/2000/svg" width="18" height="18" viewBox="0 0 18 18">
  <g id="Group_16433" data-name="Group 16433" transform="translate(-171.25 -1222)">
    <circle id="Ellipse_36" data-name="Ellipse 36" cx="9" cy="9" r="9" transform="translate(171.25 1222)" fill="#eaeaea" opacity="0.48"/>
    <path id="Fill_4" data-name="Fill 4" d="M2.242.173C2.215.2,2.1.3,2.007.392A10.16,10.16,0,0,0,.155,3.1,2.222,2.222,0,0,0,0,3.655a.921.921,0,0,0,.1.419.868.868,0,0,0,.416.372,4.506,4.506,0,0,0,.49.12,10.879,10.879,0,0,0,1.752.112,12.561,12.561,0,0,0,1.7-.1,3.8,3.8,0,0,0,.611-.16.835.835,0,0,0,.456-.738V3.655a2.316,2.316,0,0,0-.188-.618A10.147,10.147,0,0,0,3.51.386,2.62,2.62,0,0,0,3.255.16.814.814,0,0,0,2.765,0a.854.854,0,0,0-.524.173" transform="translate(182.591 1228.49) rotate(90)" fill="#f5df4d"/>
  </g>
</svg>
