<svg id="Iconly_Bulk_Shield_Fail" data-name="Iconly/Bulk/Shield Fail" xmlns="http://www.w3.org/2000/svg" width="24" height="24" viewBox="0 0 24 24">
  <g id="Shield_Fail" data-name="Shield Fail" transform="translate(3.5 2)">
    <path id="Fill_1" data-name="Fill 1" d="M8.586,20a.778.778,0,0,1-.358-.086l-3.6-1.864a8.426,8.426,0,0,1-2.446-1.816A8.243,8.243,0,0,1,.041,10.76L0,4.124A1.812,1.812,0,0,1,1.227,2.412L7.84.107A1.883,1.883,0,0,1,9.07.1l6.638,2.227a1.809,1.809,0,0,1,1.249,1.7L17,10.663a8.241,8.241,0,0,1-2.065,5.5A8.437,8.437,0,0,1,12.514,18L8.944,19.909A.768.768,0,0,1,8.586,20" transform="translate(0)" fill="#f9f9f9" opacity="0.4"/>
    <path id="Fill_4" data-name="Fill 4" d="M3.715,2.578,5.073,1.255a.721.721,0,0,0,0-1.039A.77.77,0,0,0,4,.215L2.647,1.537,1.289.215a.77.77,0,0,0-1.068,0,.721.721,0,0,0,0,1.039L1.579,2.578.221,3.9a.721.721,0,0,0,0,1.039.769.769,0,0,0,1.068,0L2.647,3.618,4,4.94a.769.769,0,0,0,1.068,0,.721.721,0,0,0,0-1.039Z" transform="translate(5.853 7.147)" fill="#f9f9f9"/>
  </g>
</svg>
