<svg width="200" height="533" viewBox="0 0 200 533" fill="none" xmlns="http://www.w3.org/2000/svg">
<circle opacity="0.28" cx="100" cy="267" r="100" fill="#6F3AF9"/>
<circle cx="100" cy="267" r="83" fill="white"/>
<path d="M117.338 228.999H82.6616C69.1056 228.999 60.0016 238.511 60.0016 252.667V285.335C60.0016 299.487 69.1056 308.999 82.6616 308.999H117.334C130.89 308.999 140.002 299.487 140.002 285.335V252.667C140.002 238.511 130.894 228.999 117.338 228.999Z" fill="#212121"/>
<path fill-rule="evenodd" clip-rule="evenodd" d="M97.2568 265.994H120.057C121.697 265.994 123.057 267.354 123.057 268.994V276.394C123.057 278.074 121.697 279.394 120.057 279.394C118.377 279.394 117.057 278.074 117.057 276.394V271.994H111.737V276.394C111.737 278.074 110.377 279.394 108.737 279.394C107.057 279.394 105.737 278.074 105.737 276.394V271.994H97.2568C95.9768 276.274 92.0568 279.394 87.3768 279.394C81.6168 279.394 76.9368 274.754 76.9368 268.994C76.9368 263.274 81.6168 258.594 87.3768 258.594C92.0568 258.594 95.9768 261.714 97.2568 265.994ZM82.9368 268.994C82.9368 271.434 84.9368 273.394 87.3768 273.394C89.7768 273.394 91.7768 271.434 91.7768 268.994C91.7768 266.554 89.7768 264.594 87.3768 264.594C84.9368 264.594 82.9368 266.554 82.9368 268.994Z" fill="#00C175"/>
<path opacity="0.1" d="M183 267C183 312.84 145.84 350 100 350C54.1604 350 17 312.84 17 267C17 221.16 54.1604 184 100 184C145.84 184 183 221.16 183 267ZM30.28 267C30.28 305.505 61.4947 336.72 100 336.72C138.505 336.72 169.72 305.505 169.72 267C169.72 228.495 138.505 197.28 100 197.28C61.4947 197.28 30.28 228.495 30.28 267Z" fill="#01F093"/>
<path d="M147.36 7.99921H112.68C99.12 7.99921 90 17.5192 90 31.6792V64.3592C90 78.4792 99.12 87.9992 112.68 87.9992H147.36C160.92 87.9992 170 78.4792 170 64.3592V31.6792C170 17.5192 160.92 7.99921 147.36 7.99921Z" fill="#212121"/>
<path d="M144.294 63.2572C143.77 63.2572 143.242 63.1212 142.758 62.8372L127.054 53.4692C126.15 52.9252 125.594 51.9452 125.594 50.8892V30.7012C125.594 29.0452 126.938 27.7012 128.594 27.7012C130.25 27.7012 131.594 29.0452 131.594 30.7012V49.1852L145.834 57.6772C147.254 58.5292 147.722 60.3692 146.874 61.7932C146.31 62.7332 145.314 63.2572 144.294 63.2572Z" fill="#00C175"/>
<path d="M147.361 444.999H112.681C99.1212 444.999 90.0012 454.519 90.0012 468.679V501.359C90.0012 515.479 99.1212 524.999 112.681 524.999H147.361C160.921 524.999 170.001 515.479 170.001 501.359V468.679C170.001 454.519 160.921 444.999 147.361 444.999Z" fill="#212121"/>
<path d="M125.254 497.991C124.358 497.991 123.462 497.651 122.778 496.967L113.286 487.475C111.918 486.107 111.918 483.891 113.286 482.527C114.654 481.159 116.866 481.155 118.234 482.523L125.254 489.543L141.766 473.031C143.134 471.663 145.346 471.663 146.714 473.031C148.082 474.399 148.082 476.615 146.714 477.983L127.73 496.967C127.046 497.651 126.15 497.991 125.254 497.991Z" fill="#00C175"/>
<path d="M15.5 192L15.5 48" stroke="#212121" stroke-linejoin="round" stroke-dasharray="18 18"/>
<path d="M16 48.5H52" stroke="#212121" stroke-linejoin="round" stroke-dasharray="18 18"/>
<path d="M15.5 485.5L15.5 341.5" stroke="#212121" stroke-linejoin="round" stroke-dasharray="18 18"/>
<path d="M16 485H52" stroke="#212121" stroke-linejoin="round" stroke-dasharray="18 18"/>
<path d="M164 268C163.724 268 163.5 268.224 163.5 268.5C163.5 268.776 163.724 269 164 269V268ZM164 269H188V268H164V269Z" fill="#212121"/>
<line x1="12" y1="268.5" x2="36" y2="268.5" stroke="#212121"/>
<path d="M99 205C99 205.276 99.2239 205.5 99.5 205.5C99.7761 205.5 100 205.276 100 205H99ZM100 205V181H99V205H100Z" fill="#212121"/>
<path d="M99 357C99 357.276 99.2239 357.5 99.5 357.5C99.7761 357.5 100 357.276 100 357H99ZM100 357V333H99V357H100Z" fill="#212121"/>
</svg>
