<svg width="72" height="72" viewBox="0 0 72 72" fill="none" xmlns="http://www.w3.org/2000/svg">
<rect width="72" height="72" rx="12" fill="#F4F4F4"/>
<path d="M36.173 56C35.9253 56 35.6777 55.9431 35.4542 55.8274L28.252 52.0992C26.2083 51.0402 24.6096 49.8517 23.3613 48.4671C20.629 45.4391 19.1088 41.552 19.0846 37.5198L19.0001 24.2485C18.99 22.7168 19.9786 21.3421 21.4565 20.8243L34.681 16.2136C35.4663 15.9331 36.3421 15.9292 37.1415 16.1998L50.4163 20.6537C51.9022 21.1499 52.907 22.5148 52.915 24.0446L52.9996 37.3257C53.0258 41.352 51.5579 45.2547 48.8679 48.3161C47.6337 49.7203 46.0491 50.9264 44.0255 52.0051L36.8878 55.8176C36.6663 55.9372 36.4206 55.998 36.173 56Z" fill="#6F3AF9"/>
<path d="M34.6382 40.6418C34.2517 40.6438 33.8651 40.5045 33.5671 40.2182L29.7334 36.5312C29.1415 35.9585 29.1354 35.0289 29.7213 34.4523C30.3073 33.8738 31.2637 33.8679 31.8576 34.4386L34.6161 37.0901L41.3512 30.4496C41.9391 29.871 42.8955 29.8652 43.4875 30.4359C44.0814 31.0085 44.0875 31.9401 43.5015 32.5147L35.7034 40.2045C35.4094 40.4947 35.0248 40.6399 34.6382 40.6418Z" fill="#F4F4F4"/>
</svg>
