<svg width="477" height="425" viewBox="0 0 477 425" fill="none" xmlns="http://www.w3.org/2000/svg">
<g clip-path="url(#clip0_19_537)">
<path opacity="0.5" d="M286.534 371.295L116.33 273.172C111.562 270.433 112.158 265.551 117.641 262.335L233.494 195.531C239.096 192.316 247.439 191.959 252.326 194.697L422.53 292.939C427.298 295.678 426.702 300.56 421.219 303.776L305.366 370.58C299.645 373.795 291.301 374.152 286.534 371.295Z" fill="#6F3AF9"/>
<path d="M470.206 103.243L293.089 1.07173C291.063 -0.119081 288.918 -0.238162 287.13 0.357243L286.772 0.476324C286.772 0.476324 286.772 0.476324 286.653 0.476324L280.217 2.97702L285.938 5.83497C285.938 5.95405 285.938 6.07313 285.819 6.19221L256.975 137.3C255.544 143.85 258.405 151.471 263.411 154.448L436.237 254.119L435.641 261.383L442.673 258.644C445.057 257.572 446.845 255.071 447.679 251.499L476.523 120.391C478.073 113.722 475.212 106.101 470.206 103.243Z" fill="#6F3AF9"/>
<path d="M470.206 103.243L293.089 1.07173C291.063 -0.119081 288.918 -0.238162 287.13 0.357243L286.772 0.476324C286.772 0.476324 286.772 0.476324 286.653 0.476324L280.217 2.97702L285.938 5.83497C285.938 5.95405 285.938 6.07313 285.819 6.19221L266.987 92.5259L353.638 159.926L475.808 110.269C474.616 107.292 472.59 104.672 470.206 103.243Z" fill="#703AF9"/>
<path d="M463.531 123.368L477 117.652C477.238 112.412 475.093 107.054 471.517 104.196L450.182 113.127L463.531 123.368Z" fill="#502CE9"/>
<path d="M429.562 260.668L252.445 158.497C247.439 155.639 244.579 147.899 246.009 141.349L274.972 10.241C276.403 3.69151 281.647 0.714489 286.653 3.57243L463.651 105.744C468.657 108.602 471.517 116.342 470.087 122.892L441.243 254C439.813 260.549 434.568 263.526 429.562 260.668Z" fill="#D8C8FD"/>
<path d="M465.439 105.029L288.322 2.97702C285.938 1.54805 283.435 1.54805 281.409 2.61978C283.077 2.26253 284.865 2.5007 286.653 3.57243L463.651 105.744C468.657 108.602 471.517 116.342 470.087 122.892L441.243 254C440.528 257.334 438.74 259.835 436.475 260.906C439.455 260.311 441.958 257.572 442.912 253.285L471.756 122.177C473.305 115.628 470.445 108.006 465.439 105.029Z" fill="white"/>
<path d="M425.748 250.904L259.239 154.924C254.71 152.305 251.969 145.279 253.28 139.206L279.621 19.172C280.932 13.218 285.699 10.4791 290.348 13.0989L456.857 109.078C461.386 111.698 464.127 118.724 462.816 124.797L436.475 244.83C435.164 250.785 430.397 253.523 425.748 250.904Z" fill="white"/>
<path d="M425.748 250.904L259.239 154.924C254.71 152.305 251.969 145.279 253.28 139.206L279.621 19.172C280.932 13.218 285.699 10.4791 290.348 13.0989L456.857 109.078C461.386 111.698 464.127 118.724 462.816 124.797L436.475 244.83C435.164 250.785 430.397 253.523 425.748 250.904Z" fill="#6F3AF9"/>
<path d="M427.178 250.308L260.669 154.329C256.14 151.709 253.399 144.683 254.71 138.61L281.051 18.5766C281.766 15.4805 283.316 13.3371 285.223 12.2654C282.6 12.9798 280.455 15.3615 279.621 19.172L253.28 139.206C251.968 145.16 254.591 152.185 259.239 154.924L425.748 250.904C428.013 252.214 430.277 252.213 432.184 251.142C430.635 251.499 428.966 251.261 427.178 250.308Z" fill="#373737"/>
<path d="M432.065 265.074L407.87 261.859L251.611 171.715C246.605 168.857 237.904 169.214 232.064 172.548L121.336 236.376L106.675 234.47V242.806C106.556 244.711 107.629 246.617 110.013 247.927L287.13 350.098C292.136 352.956 300.837 352.599 306.677 349.264L427.298 279.721C430.516 277.816 432.184 275.434 432.065 273.172V265.074Z" fill="#6F3AF9"/>
<path d="M314.663 208.154L303.578 201.723H181.527L121.336 236.376L106.675 234.47V242.806C106.556 244.711 107.629 246.617 110.013 247.927L287.13 350.098C289.752 351.646 293.447 352.242 297.261 352.003L314.663 208.154Z" fill="#703AF9"/>
<path d="M113.231 235.304L106.795 234.47V242.806C106.675 244.711 107.748 246.617 110.132 247.927L113.231 249.713V235.304Z" fill="#373737"/>
<path d="M288.917 350.813C293.685 352.599 300.479 352.242 305.485 349.741V331.283H288.917V350.813Z" fill="#502CE9"/>
<path d="M287.13 341.762L110.132 239.591C105.126 236.733 105.722 231.612 111.562 228.278L232.183 158.735C238.023 155.401 246.724 155.043 251.73 157.901L428.847 260.073C433.853 262.931 433.257 268.051 427.417 271.386L306.796 340.929C300.956 344.263 292.136 344.62 287.13 341.762Z" fill="#D8C8FD"/>
<path d="M427.298 268.409L306.677 337.952C300.837 341.286 292.136 341.643 287.13 338.785L110.132 236.614C108.463 235.661 107.51 234.47 107.033 233.161C106.199 235.542 107.271 237.924 110.132 239.591L287.13 341.762C292.136 344.62 300.837 344.263 306.677 340.929L427.298 271.386C431.231 269.123 432.78 266.146 431.827 263.526C431.231 265.312 429.681 266.98 427.298 268.409Z" fill="white"/>
<path d="M185.46 205.772L177.475 201.128C176.879 200.771 176.879 200.056 177.713 199.699L187.129 194.221C187.844 193.745 189.036 193.745 189.632 194.102L197.618 198.746C198.214 199.103 198.214 199.818 197.379 200.175L187.963 205.653C187.129 206.129 186.056 206.129 185.46 205.772Z" fill="#373737"/>
<path d="M197.737 212.917L189.751 208.273C189.155 207.915 189.155 207.201 189.99 206.844L199.406 201.366C200.121 200.89 201.313 200.89 201.909 201.247L209.894 205.891C210.49 206.248 210.49 206.963 209.656 207.32L200.24 212.798C199.525 213.274 198.452 213.274 197.737 212.917Z" fill="#373737"/>
<path d="M210.133 220.062L202.147 215.417C201.551 215.06 201.551 214.346 202.385 213.989L211.801 208.511C212.517 208.034 213.708 208.034 214.304 208.392L222.29 213.036C222.886 213.393 222.886 214.108 222.052 214.465L212.636 219.943C211.921 220.419 210.848 220.419 210.133 220.062Z" fill="#373737"/>
<path d="M227.296 214.227L219.311 209.583C218.715 209.225 218.715 208.511 219.549 208.154L227.535 203.628C228.25 203.152 229.442 203.152 230.038 203.509L238.023 208.154C238.619 208.511 238.619 209.225 237.785 209.583L229.799 214.108C229.084 214.465 227.892 214.584 227.296 214.227Z" fill="#373737"/>
<path d="M239.692 221.372L231.706 216.727C231.11 216.37 231.11 215.656 231.945 215.298L239.93 210.773C240.646 210.297 241.837 210.297 242.433 210.654L250.419 215.298C251.015 215.656 251.015 216.37 250.181 216.727L242.195 221.252C241.361 221.61 240.288 221.729 239.692 221.372Z" fill="#373737"/>
<path d="M251.969 228.516L243.983 223.872C243.387 223.515 243.387 222.8 244.221 222.443L252.207 217.918C252.922 217.442 254.114 217.442 254.71 217.799L262.696 222.443C263.292 222.8 263.292 223.515 262.457 223.872L254.472 228.397C253.757 228.755 252.684 228.874 251.969 228.516Z" fill="#373737"/>
<path d="M264.364 235.542L256.379 230.898C255.783 230.541 255.783 229.826 256.617 229.469L264.603 224.944C265.318 224.468 266.51 224.468 267.106 224.825L275.092 229.469C275.688 229.826 275.688 230.541 274.853 230.898L266.867 235.423C266.152 235.899 265.08 236.019 264.364 235.542Z" fill="#373737"/>
<path d="M276.76 242.687L268.774 238.043C268.178 237.686 268.178 236.971 269.013 236.614L276.999 232.089C277.714 231.612 278.906 231.612 279.502 231.97L287.487 236.614C288.083 236.971 288.083 237.686 287.249 238.043L279.263 242.568C278.548 243.044 277.356 243.044 276.76 242.687Z" fill="#373737"/>
<path d="M289.156 249.832L281.17 245.188C280.574 244.83 280.574 244.116 281.409 243.759L289.394 239.234C290.109 238.757 291.301 238.757 291.897 239.115L299.883 243.759C300.479 244.116 300.479 244.83 299.645 245.188L291.659 249.713C290.944 250.189 289.752 250.189 289.156 249.832Z" fill="#373737"/>
<path d="M301.552 256.977L293.566 252.333C292.97 251.975 292.97 251.261 293.805 250.904L301.79 246.379C302.505 245.902 303.697 245.902 304.293 246.259L312.279 250.904C312.875 251.261 312.875 251.975 312.041 252.333L304.055 256.858C303.221 257.334 302.148 257.334 301.552 256.977Z" fill="#373737"/>
<path d="M313.829 264.122L305.843 259.477C305.247 259.12 305.247 258.406 306.081 258.048L314.067 253.523C314.782 253.047 315.974 253.047 316.57 253.404L324.556 258.048C325.152 258.406 325.152 259.12 324.317 259.477L316.332 264.003C315.616 264.479 314.544 264.479 313.829 264.122Z" fill="#373737"/>
<path d="M326.224 271.266L318.239 266.622C317.643 266.265 317.643 265.551 318.477 265.193L326.463 260.668C327.178 260.192 328.37 260.192 328.966 260.549L336.951 265.193C337.547 265.551 337.547 266.265 336.713 266.622L328.727 271.147C328.012 271.624 326.939 271.624 326.224 271.266Z" fill="#373737"/>
<path d="M338.62 278.411L330.634 273.767C330.038 273.41 330.038 272.695 330.873 272.338L338.858 267.813C339.574 267.337 340.765 267.337 341.361 267.694L349.347 272.338C349.943 272.695 349.943 273.41 349.109 273.767L341.123 278.292C340.408 278.769 339.216 278.769 338.62 278.411Z" fill="#373737"/>
<path d="M245.532 210.773L237.547 206.129C236.951 205.772 236.951 205.057 237.785 204.7L245.771 200.175C246.486 199.699 247.678 199.699 248.274 200.056L256.26 204.7C256.855 205.057 256.855 205.772 256.021 206.129L248.035 210.654C247.32 211.131 246.128 211.131 245.532 210.773Z" fill="#373737"/>
<path d="M232.898 203.509L224.912 198.865C224.316 198.508 224.316 197.794 225.151 197.436L233.137 192.911C233.852 192.435 235.044 192.435 235.64 192.792L243.625 197.436C244.221 197.794 244.221 198.508 243.387 198.865L235.401 203.39C234.686 203.867 233.613 203.986 232.898 203.509Z" fill="#373737"/>
<path d="M220.383 196.365L203.101 186.362C202.505 186.004 202.505 185.29 203.339 184.933L211.325 180.408C212.04 179.931 213.232 179.931 213.828 180.289L231.11 190.291C231.706 190.649 231.706 191.363 230.872 191.72L222.886 196.245C222.171 196.603 220.979 196.722 220.383 196.365Z" fill="#373737"/>
<path d="M229.203 187.433L215.258 179.336C214.662 178.979 214.662 178.264 215.496 177.907L223.482 173.382C224.197 172.906 225.389 172.906 225.985 173.263L239.93 181.36C240.526 181.718 240.526 182.432 239.692 182.789L231.706 187.314C230.872 187.791 229.799 187.91 229.203 187.433Z" fill="#373737"/>
<path d="M257.928 217.918L249.942 213.274C249.346 212.917 249.346 212.202 250.181 211.845L258.167 207.32C258.882 206.844 260.074 206.844 260.67 207.201L268.655 211.845C269.251 212.202 269.251 212.917 268.417 213.274L260.431 217.799C259.597 218.275 258.524 218.275 257.928 217.918Z" fill="#373737"/>
<path d="M270.205 225.063L262.219 220.419C261.623 220.062 261.623 219.347 262.457 218.99L270.443 214.465C271.158 213.989 272.35 213.989 272.946 214.346L280.932 218.99C281.528 219.347 281.528 220.062 280.694 220.419L272.708 224.944C271.993 225.42 270.92 225.42 270.205 225.063Z" fill="#373737"/>
<path d="M282.601 232.208L274.615 227.564C274.019 227.206 274.019 226.492 274.853 226.135L282.839 221.61C283.554 221.133 284.746 221.133 285.342 221.491L293.328 226.135C293.924 226.492 293.924 227.206 293.089 227.564L285.104 232.089C284.388 232.565 283.316 232.565 282.601 232.208Z" fill="#373737"/>
<path d="M294.996 239.353L287.011 234.709C286.415 234.351 286.415 233.637 287.249 233.28L295.235 228.755C295.95 228.278 297.142 228.278 297.738 228.636L305.723 233.28C306.319 233.637 306.319 234.351 305.485 234.709L297.499 239.234C296.784 239.71 295.592 239.71 294.996 239.353Z" fill="#373737"/>
<path d="M307.392 246.498L299.407 241.853C298.811 241.496 298.811 240.782 299.645 240.424L307.631 235.899C308.346 235.423 309.538 235.423 310.134 235.78L318.119 240.424C318.715 240.782 318.715 241.496 317.881 241.853L309.895 246.379C309.18 246.855 307.988 246.855 307.392 246.498Z" fill="#373737"/>
<path d="M319.788 253.642L311.802 248.998C311.206 248.641 311.206 247.927 312.041 247.569L320.026 243.044C320.742 242.568 321.933 242.568 322.529 242.925L330.515 247.569C331.111 247.927 331.111 248.641 330.277 248.998L322.291 253.523C321.457 254 320.384 254 319.788 253.642Z" fill="#373737"/>
<path d="M332.065 260.787L324.079 256.143C323.483 255.786 323.483 255.071 324.317 254.714L332.303 250.189C333.018 249.713 334.21 249.713 334.806 250.07L342.792 254.714C343.388 255.071 343.388 255.786 342.553 256.143L334.568 260.668C333.852 261.145 332.78 261.145 332.065 260.787Z" fill="#373737"/>
<path d="M344.46 267.932L336.475 263.288C335.879 262.931 335.879 262.216 336.713 261.859L344.699 257.334C345.414 256.858 346.606 256.858 347.202 257.215L355.188 261.859C355.783 262.216 355.783 262.931 354.949 263.288L346.963 267.813C346.248 268.17 345.176 268.289 344.46 267.932Z" fill="#373737"/>
<path d="M356.856 275.077L348.87 270.433C348.274 270.076 348.274 269.361 349.109 269.004L357.095 264.479C357.81 264.003 359.002 264.003 359.598 264.36L367.583 269.004C368.179 269.361 368.179 270.076 367.345 270.433L359.359 274.958C358.644 275.315 357.452 275.434 356.856 275.077Z" fill="#373737"/>
<path d="M378.787 287.7L361.266 277.578C360.67 277.221 360.67 276.506 361.504 276.149L369.49 271.624C370.205 271.147 371.397 271.147 371.993 271.505L389.514 281.627C390.11 281.984 390.11 282.698 389.276 283.055L381.29 287.581C380.575 288.057 379.502 288.057 378.787 287.7Z" fill="#373737"/>
<path d="M402.983 273.886L388.203 265.431C387.607 265.074 387.607 264.36 388.442 264.003L396.427 259.477C397.142 259.001 398.334 259.001 398.93 259.358L413.71 267.813C414.306 268.17 414.306 268.885 413.471 269.242L405.486 273.767C404.651 274.124 403.579 274.243 402.983 273.886Z" fill="#373737"/>
<path d="M279.502 216.489L271.516 211.845C270.92 211.488 270.92 210.773 271.754 210.416L279.74 205.891C280.455 205.415 281.647 205.415 282.243 205.772L290.229 210.416C290.825 210.773 290.825 211.488 289.99 211.845L282.005 216.37C281.289 216.846 280.217 216.966 279.502 216.489Z" fill="#373737"/>
<path d="M266.867 209.225L258.882 204.581C258.286 204.224 258.286 203.509 259.12 203.152L267.106 198.627C267.821 198.151 269.013 198.151 269.609 198.508L277.594 203.152C278.19 203.509 278.19 204.224 277.356 204.581L269.37 209.106C268.655 209.583 267.463 209.583 266.867 209.225Z" fill="#373737"/>
<path d="M254.233 201.961L246.248 197.317C245.652 196.96 245.652 196.245 246.486 195.888L254.472 191.363C255.187 190.887 256.379 190.887 256.975 191.244L264.96 195.888C265.556 196.245 265.556 196.96 264.722 197.317L256.736 201.842C255.902 202.199 254.829 202.319 254.233 201.961Z" fill="#373737"/>
<path d="M241.48 194.578L233.494 189.934C232.898 189.577 232.898 188.862 233.733 188.505L241.718 183.98C242.433 183.504 243.625 183.504 244.221 183.861L252.207 188.505C252.803 188.862 252.803 189.577 251.969 189.934L243.983 194.459C243.268 194.936 242.195 194.936 241.48 194.578Z" fill="#373737"/>
<path d="M291.897 223.634L283.912 218.99C283.316 218.633 283.316 217.918 284.15 217.561L292.136 213.036C292.851 212.56 294.043 212.56 294.639 212.917L302.625 217.561C303.22 217.918 303.22 218.633 302.386 218.99L294.4 223.515C293.685 223.991 292.613 224.11 291.897 223.634Z" fill="#373737"/>
<path d="M304.293 230.779L296.307 226.135C295.711 225.778 295.711 225.063 296.546 224.706L304.532 220.181C305.247 219.704 306.439 219.704 307.035 220.062L315.02 224.706C315.616 225.063 315.616 225.778 314.782 226.135L306.796 230.66C306.081 231.136 304.889 231.136 304.293 230.779Z" fill="#373737"/>
<path d="M316.689 237.924L308.703 233.28C308.107 232.922 308.107 232.208 308.942 231.851L316.927 227.326C317.642 226.849 318.834 226.849 319.43 227.206L327.416 231.851C328.012 232.208 328.012 232.922 327.178 233.28L319.192 237.805C318.477 238.281 317.285 238.281 316.689 237.924Z" fill="#373737"/>
<path d="M329.085 245.069L321.099 240.424C320.503 240.067 320.503 239.353 321.338 238.995L329.323 234.47C330.038 233.994 331.23 233.994 331.826 234.351L339.812 238.995C340.408 239.353 340.408 240.067 339.574 240.424L331.588 244.95C330.754 245.426 329.681 245.426 329.085 245.069Z" fill="#373737"/>
<path d="M341.361 252.214L333.376 247.569C332.78 247.212 332.78 246.498 333.614 246.14L341.6 241.615C342.315 241.139 343.507 241.139 344.103 241.496L352.089 246.14C352.685 246.498 352.685 247.212 351.85 247.569L343.864 252.094C343.149 252.571 342.077 252.571 341.361 252.214Z" fill="#373737"/>
<path d="M353.757 259.358L345.772 254.714C345.176 254.357 345.176 253.642 346.01 253.285L353.996 248.76C354.711 248.284 355.903 248.284 356.499 248.641L364.484 253.285C365.08 253.642 365.08 254.357 364.246 254.714L356.26 259.239C355.545 259.716 354.472 259.716 353.757 259.358Z" fill="#373737"/>
<path d="M366.153 266.503L358.167 261.859C357.571 261.502 357.571 260.787 358.406 260.43L366.391 255.905C367.107 255.429 368.298 255.429 368.894 255.786L376.88 260.43C377.476 260.787 377.476 261.502 376.642 261.859L368.656 266.384C367.941 266.86 366.749 266.86 366.153 266.503Z" fill="#373737"/>
<path d="M378.549 273.648L370.563 269.004C369.967 268.647 369.967 267.932 370.801 267.575L378.787 263.05C379.502 262.574 380.694 262.574 381.29 262.931L389.276 267.575C389.872 267.932 389.872 268.647 389.038 269.004L381.052 273.529C380.337 274.005 379.145 274.005 378.549 273.648Z" fill="#373737"/>
<path d="M390.945 280.793L382.959 276.149C382.363 275.792 382.363 275.077 383.197 274.72L391.183 270.195C391.898 269.718 393.09 269.718 393.686 270.076L401.672 274.72C402.268 275.077 402.268 275.792 401.433 276.149L393.448 280.674C392.613 281.15 391.54 281.15 390.945 280.793Z" fill="#373737"/>
<path d="M273.065 198.865L265.08 194.221C264.484 193.864 264.484 193.149 265.318 192.792L273.304 188.267C274.019 187.791 275.211 187.791 275.807 188.148L283.793 192.792C284.388 193.149 284.388 193.864 283.554 194.221L275.568 198.746C274.734 199.222 273.661 199.222 273.065 198.865Z" fill="#373737"/>
<path d="M260.67 191.839L252.684 187.195C252.088 186.838 252.088 186.124 252.922 185.766L260.908 181.241C261.623 180.765 262.815 180.765 263.411 181.122L271.397 185.766C271.993 186.124 271.993 186.838 271.158 187.195L263.173 191.72C262.457 192.078 261.385 192.197 260.67 191.839Z" fill="#373737"/>
<path d="M248.393 184.695L240.407 180.05C239.811 179.693 239.811 178.979 240.646 178.621L248.631 174.096C249.347 173.62 250.538 173.62 251.134 173.977L259.12 178.621C259.716 178.979 259.716 179.693 258.882 180.05L250.896 184.576C250.181 185.052 248.989 185.052 248.393 184.695Z" fill="#373737"/>
<path d="M236.116 177.55L228.131 172.906C227.535 172.548 227.535 171.834 228.369 171.477L236.355 166.952C237.07 166.475 238.262 166.475 238.858 166.832L246.844 171.477C247.439 171.834 247.439 172.548 246.605 172.906L238.619 177.431C237.904 177.907 236.712 177.907 236.116 177.55Z" fill="#373737"/>
<path d="M248.75 170.286L240.765 165.642C240.169 165.284 240.169 164.57 241.003 164.213L243.625 162.665C244.34 162.188 245.532 162.188 246.128 162.546L254.114 167.19C254.71 167.547 254.71 168.261 253.876 168.619L251.253 170.167C250.538 170.643 249.346 170.643 248.75 170.286Z" fill="#373737"/>
<path d="M264.841 179.574L256.855 174.93C256.26 174.573 256.26 173.858 257.094 173.501L259.716 171.953C260.431 171.477 261.623 171.477 262.219 171.834L270.205 176.478C270.801 176.835 270.801 177.55 269.966 177.907L267.344 179.455C266.629 179.931 265.437 179.931 264.841 179.574Z" fill="#373737"/>
<path d="M277.118 186.6L269.132 181.956C268.536 181.598 268.536 180.884 269.37 180.527L271.993 178.979C272.708 178.502 273.9 178.502 274.496 178.86L282.481 183.504C283.077 183.861 283.077 184.576 282.243 184.933L279.621 186.481C278.787 186.957 277.714 186.957 277.118 186.6Z" fill="#373737"/>
<path d="M289.394 193.745L281.409 189.101C280.813 188.743 280.813 188.029 281.647 187.672L284.269 186.124C284.984 185.647 286.176 185.647 286.772 186.005L294.758 190.649C295.354 191.006 295.354 191.72 294.52 192.078L291.897 193.626C291.063 193.983 289.99 194.102 289.394 193.745Z" fill="#373737"/>
<path d="M301.552 200.771L293.566 196.126C292.97 195.769 292.97 195.055 293.805 194.697L296.427 193.149C297.142 192.673 298.334 192.673 298.93 193.03L306.915 197.674C307.511 198.032 307.511 198.746 306.677 199.103L304.055 200.651C303.34 201.128 302.267 201.128 301.552 200.771Z" fill="#373737"/>
<path d="M370.086 240.305L362.101 235.661C361.505 235.304 361.505 234.59 362.339 234.232L364.961 232.684C365.676 232.208 366.868 232.208 367.464 232.565L375.45 237.209C376.046 237.567 376.046 238.281 375.212 238.638L372.589 240.186C371.755 240.544 370.682 240.663 370.086 240.305Z" fill="#373737"/>
<path d="M382.244 247.331L374.258 242.687C373.662 242.33 373.662 241.615 374.496 241.258L377.119 239.71C377.834 239.234 379.026 239.234 379.622 239.591L387.607 244.235C388.203 244.592 388.203 245.307 387.369 245.664L384.747 247.212C384.032 247.688 382.959 247.688 382.244 247.331Z" fill="#373737"/>
<path d="M394.52 254.357L386.535 249.713C385.939 249.356 385.939 248.641 386.773 248.284L389.395 246.736C390.11 246.259 391.302 246.259 391.898 246.617L399.884 251.261C400.48 251.618 400.48 252.333 399.646 252.69L397.023 254.238C396.308 254.714 395.236 254.714 394.52 254.357Z" fill="#373737"/>
<path d="M406.797 261.502L398.811 256.858C398.215 256.5 398.215 255.786 399.05 255.429L401.672 253.881C402.387 253.404 403.579 253.404 404.175 253.762L412.161 258.406C412.757 258.763 412.757 259.477 411.922 259.835L409.3 261.383C408.585 261.74 407.512 261.859 406.797 261.502Z" fill="#373737"/>
<path d="M285.342 206.01L277.356 201.366C276.76 201.009 276.76 200.294 277.595 199.937L285.58 195.412C286.296 194.936 287.487 194.936 288.083 195.293L296.069 199.937C296.665 200.294 296.665 201.009 295.831 201.366L287.845 205.891C287.13 206.367 286.057 206.367 285.342 206.01Z" fill="#373737"/>
<path d="M297.738 213.155L289.752 208.511C289.156 208.154 289.156 207.439 289.99 207.082L297.976 202.557C298.691 202.08 299.883 202.08 300.479 202.438L308.465 207.082C309.061 207.439 309.061 208.154 308.226 208.511L300.241 213.036C299.526 213.512 298.453 213.512 297.738 213.155Z" fill="#373737"/>
<path d="M310.133 220.3L302.148 215.656C301.552 215.298 301.552 214.584 302.386 214.227L310.372 209.702C311.087 209.225 312.279 209.225 312.875 209.583L320.861 214.227C321.457 214.584 321.457 215.298 320.622 215.656L312.636 220.181C311.921 220.657 310.729 220.657 310.133 220.3Z" fill="#373737"/>
<path d="M322.529 227.445L314.543 222.801C313.948 222.443 313.948 221.729 314.782 221.372L322.768 216.847C323.483 216.37 324.675 216.37 325.271 216.727L333.256 221.372C333.852 221.729 333.852 222.443 333.018 222.801L325.032 227.326C324.317 227.802 323.125 227.802 322.529 227.445Z" fill="#373737"/>
<path d="M334.925 234.59L326.939 229.945C326.344 229.588 326.344 228.874 327.178 228.516L335.164 223.991C335.879 223.515 337.071 223.515 337.667 223.872L345.652 228.516C346.248 228.874 346.248 229.588 345.414 229.945L337.428 234.47C336.594 234.947 335.521 234.947 334.925 234.59Z" fill="#373737"/>
<path d="M347.202 241.734L339.216 237.09C338.62 236.733 338.62 236.018 339.454 235.661L347.44 231.136C348.155 230.66 349.347 230.66 349.943 231.017L357.929 235.661C358.525 236.018 358.525 236.733 357.691 237.09L349.705 241.615C348.99 242.092 347.917 242.092 347.202 241.734Z" fill="#373737"/>
<path d="M359.598 248.879L351.612 244.235C351.016 243.878 351.016 243.163 351.85 242.806L359.836 238.281C360.551 237.805 361.743 237.805 362.339 238.162L370.325 242.806C370.921 243.163 370.921 243.878 370.086 244.235L362.101 248.76C361.385 249.117 360.313 249.237 359.598 248.879Z" fill="#373737"/>
<path d="M371.993 256.024L364.008 251.38C363.412 251.023 363.412 250.308 364.246 249.951L372.232 245.426C372.947 244.95 374.139 244.95 374.735 245.307L382.72 249.951C383.316 250.308 383.316 251.023 382.482 251.38L374.496 255.905C373.781 256.262 372.589 256.381 371.993 256.024Z" fill="#373737"/>
<path d="M384.389 263.169L376.403 258.525C375.807 258.168 375.807 257.453 376.642 257.096L384.627 252.571C385.343 252.094 386.535 252.094 387.13 252.452L395.116 257.096C395.712 257.453 395.712 258.168 394.878 258.525L386.892 263.05C386.177 263.407 384.985 263.526 384.389 263.169Z" fill="#373737"/>
<path d="M214.662 206.963L191.062 193.388C190.466 193.03 190.466 192.316 191.301 191.959L199.286 187.433C200.002 186.957 201.193 186.957 201.789 187.314L225.389 200.89C225.985 201.247 225.985 201.961 225.151 202.319L217.165 206.844C216.45 207.201 215.258 207.32 214.662 206.963Z" fill="#373737"/>
<path d="M366.63 294.606L343.03 281.031C342.434 280.674 342.434 279.959 343.268 279.602L351.254 275.077C351.969 274.601 353.161 274.601 353.757 274.958L377.357 288.533C377.953 288.89 377.953 289.605 377.118 289.962L369.133 294.487C368.418 294.964 367.345 294.964 366.63 294.606Z" fill="#373737"/>
<path d="M317.166 281.865L309.18 277.22C308.584 276.863 308.584 276.149 309.418 275.792L318.834 270.314C319.55 269.837 320.741 269.837 321.337 270.195L329.323 274.839C329.919 275.196 329.919 275.911 329.085 276.268L319.669 281.746C318.954 282.103 317.881 282.222 317.166 281.865Z" fill="#373737"/>
<path d="M227.296 229.945L214.543 222.562C213.947 222.205 213.947 221.491 214.781 221.133L224.197 215.656C224.912 215.179 226.104 215.179 226.7 215.537L239.454 222.92C240.049 223.277 240.049 223.991 239.215 224.349L229.799 229.826C229.084 230.303 228.011 230.303 227.296 229.945Z" fill="#373737"/>
<path d="M305.247 274.958L292.493 267.575C291.897 267.218 291.897 266.503 292.732 266.146L302.148 260.668C302.863 260.192 304.055 260.192 304.651 260.549L317.404 267.932C318 268.289 318 269.004 317.166 269.361L307.75 274.839C307.035 275.315 305.843 275.315 305.247 274.958Z" fill="#373737"/>
<path d="M245.175 240.305L232.421 232.922C231.825 232.565 231.825 231.851 232.66 231.493L242.076 226.016C242.791 225.539 243.983 225.539 244.579 225.897L257.332 233.28C257.928 233.637 257.928 234.351 257.094 234.709L247.678 240.186C246.963 240.663 245.771 240.663 245.175 240.305Z" fill="#373737"/>
<path d="M244.579 225.897L300.241 258.048C300.956 258.406 300.956 259.12 300.241 259.477L290.586 265.074C289.871 265.432 288.798 265.432 288.083 265.074L232.421 232.922L244.579 225.897Z" fill="#373737"/>
<path d="M351.731 294.725L360.67 299.846C361.147 300.203 361.147 300.679 360.551 301.037L356.737 303.299C356.141 303.656 355.187 303.657 354.711 303.418L345.771 298.298C345.295 297.941 345.295 297.464 345.891 297.107L349.705 294.845C350.301 294.487 351.254 294.487 351.731 294.725Z" fill="#373737"/>
<path d="M339.335 287.581L348.274 292.701C348.751 293.058 348.751 293.535 348.155 293.892L344.341 296.154C343.745 296.512 342.792 296.512 342.315 296.273L333.376 291.153C332.899 290.796 332.899 290.319 333.495 289.962L337.309 287.7C337.786 287.342 338.739 287.223 339.335 287.581Z" fill="#373737"/>
<path d="M326.939 280.436L335.879 285.556C336.355 285.913 336.355 286.39 335.76 286.747L331.945 289.01C331.349 289.367 330.396 289.367 329.919 289.129L320.98 284.008C320.503 283.651 320.503 283.175 321.099 282.817L324.913 280.555C325.509 280.198 326.343 280.078 326.939 280.436Z" fill="#373737"/>
<path d="M346.129 283.651L355.068 288.771C355.545 289.129 355.545 289.605 354.949 289.962L351.135 292.225C350.539 292.582 349.586 292.582 349.109 292.344L340.17 287.223C339.693 286.866 339.693 286.39 340.289 286.033L344.103 283.77C344.699 283.294 345.533 283.294 346.129 283.651Z" fill="#373737"/>
<path d="M394.997 144.326L328.37 105.982L329.204 101.576L395.831 140.039L394.997 144.326Z" fill="#D8C8FD"/>
<path d="M371.159 151.709L324.555 124.797L325.509 120.51L371.993 147.303L371.159 151.709Z" fill="#D8C8FD"/>
<path d="M366.749 138.61L326.463 115.389L327.297 111.103L367.583 134.204L366.749 138.61Z" fill="white"/>
<path d="M393.09 153.853L372.947 142.183L373.9 137.896L393.924 149.447L393.09 153.853Z" fill="#01F093"/>
<path d="M321.218 68.1143L301.075 56.5635L302.028 52.2766L322.052 63.8274L321.218 68.1143Z" fill="#D8C8FD"/>
<path d="M319.073 78.2362L298.93 66.5663L299.764 62.2794L319.907 73.8302L319.073 78.2362Z" fill="white"/>
<path d="M417.882 217.799L397.739 206.129L398.573 201.842L418.716 213.393L417.882 217.799Z" fill="#D8C8FD"/>
<path d="M314.663 98.3609L294.52 86.6909L295.473 82.404L315.497 93.9549L314.663 98.3609Z" fill="#D8C8FD"/>
<path d="M358.167 101.457C357.571 102.886 355.903 103.362 354.591 102.529C353.28 101.695 352.684 100.028 353.28 98.5991C353.876 97.1701 355.545 96.6938 356.856 97.5273C358.286 98.2418 358.763 100.028 358.167 101.457Z" fill="#01F093"/>
<path d="M366.868 106.458C366.272 107.887 364.603 108.364 363.292 107.53C361.981 106.697 361.385 105.029 361.981 103.6C362.577 102.171 364.246 101.695 365.557 102.529C366.868 103.243 367.464 105.029 366.868 106.458Z" fill="white"/>
<path d="M375.45 111.46C374.854 112.889 373.185 113.365 371.874 112.532C370.563 111.698 369.967 110.031 370.563 108.602C371.159 107.173 372.828 106.697 374.139 107.53C375.569 108.245 376.165 110.031 375.45 111.46Z" fill="#D8C8FD"/>
<path d="M384.151 116.461C383.555 117.89 381.886 118.367 380.575 117.533C379.264 116.699 378.668 115.032 379.264 113.603C379.86 112.174 381.528 111.698 382.839 112.532C384.27 113.246 384.866 115.032 384.151 116.461Z" fill="#01F093"/>
<path d="M240.169 296.631L184.983 264.717C183.434 263.764 183.553 262.216 185.46 261.145L218.834 241.972C220.741 240.901 223.482 240.782 225.151 241.734L280.336 273.648C281.885 274.601 281.766 276.149 279.859 277.22L246.486 296.393C244.579 297.464 241.718 297.583 240.169 296.631Z" fill="white"/>
<g opacity="0.3">
<mask id="mask0_19_537" style="mask-type:luminance" maskUnits="userSpaceOnUse" x="314" y="21" width="137" height="211">
<path d="M390.11 219.585L417.166 108.959L314.782 48.3469L373.9 21.0773L449.944 50.3713C449.944 50.3713 450.42 184.218 449.944 185.528C449.467 186.838 421.815 231.732 421.815 231.732L390.11 219.585Z" fill="white"/>
</mask>
<g mask="url(#mask0_19_537)">
<path d="M359.955 153.138C363.769 155.282 363.769 158.854 359.955 161.117L295.234 198.389C294.162 198.984 292.493 198.984 291.42 198.389C290.348 197.794 290.348 196.841 291.42 196.245L356.141 158.973C357.809 158.02 357.809 156.353 356.141 155.401L349.824 151.828C350.539 150.757 351.135 149.685 351.731 148.613L359.955 153.138Z" fill="#D8C8FD"/>
<path d="M268.417 182.908L333.137 145.636C336.951 143.493 343.149 143.493 346.963 145.636L351.969 148.494C351.373 149.566 350.777 150.637 350.062 151.709L343.149 147.779C341.48 146.827 338.62 146.827 336.951 147.779L272.231 185.052C271.158 185.647 269.489 185.647 268.417 185.052C267.344 184.456 267.344 183.504 268.417 182.908Z" fill="#373737"/>
<path d="M267.582 183.98V93.1213L335.402 55.3727L344.818 54.7773L353.995 60.7313L359.716 65.6136L293.566 170.286L271.992 182.908L267.582 183.98Z" fill="#373737"/>
<path d="M362.816 66.3281V157.068L291.659 197.674L290.705 197.317V106.458L362.816 66.3281Z" fill="#D8C8FD"/>
<path d="M322.887 67.0426L337.07 58.9451C338.739 58.1115 341.361 58.2306 342.911 59.0641L356.022 66.6853C357.094 67.2807 357.452 68.1143 357.213 68.8288L321.456 90.1443L292.731 107.768L272.35 95.9792L322.887 67.0426Z" fill="white"/>
<path d="M295.354 107.53L359.955 70.2578C363.769 68.1143 363.769 64.5419 359.955 62.2793L346.844 54.6582C343.03 52.5147 336.832 52.5147 333.018 54.6582L268.297 91.9305C267.225 92.5259 267.225 93.4786 268.297 94.074C269.37 94.6694 271.039 94.6694 272.112 94.074L336.832 56.8016C338.501 55.849 341.361 55.849 343.03 56.8016L356.141 64.4228C357.809 65.3754 357.809 67.0426 356.141 67.9952L291.42 105.268C290.348 105.863 290.348 106.816 291.42 107.411C292.612 108.126 294.281 108.126 295.354 107.53Z" fill="#D8C8FD"/>
<path d="M312.159 150.518L345.771 131.108V97.5273L312.159 116.818V150.518Z" fill="white"/>
<path d="M268.417 94.193C269.489 94.7884 271.158 94.7884 272.231 94.193L336.951 56.9207C338.62 55.968 341.48 55.968 343.149 56.9207L356.26 64.5419C357.333 65.1373 357.809 66.0899 357.452 66.9235C357.213 66.4472 356.856 66.0899 356.26 65.7327L343.149 58.1115C341.48 57.1589 338.62 57.1589 336.951 58.1115L272.231 95.3838C271.158 95.9792 269.489 95.9792 268.417 95.3838C267.582 94.9075 267.463 94.3121 267.821 93.7167C267.94 93.8358 268.178 94.074 268.417 94.193Z" fill="white"/>
<path d="M291.539 107.53C292.612 108.126 294.281 108.126 295.354 107.53L359.955 70.2578C361.623 69.3051 362.577 68.1143 362.696 66.9235C363.054 68.5906 362.1 70.2578 359.955 71.4486L295.234 108.721C294.162 109.316 292.493 109.316 291.42 108.721C290.586 108.245 290.467 107.649 290.824 107.054C291.063 107.173 291.301 107.411 291.539 107.53Z" fill="white"/>
<path d="M389.753 170.643C393.567 172.786 393.567 176.359 389.753 178.621L325.032 215.894C323.96 216.489 322.291 216.489 321.218 215.894C320.145 215.298 320.145 214.346 321.218 213.75L385.938 176.478C387.607 175.525 387.607 173.858 385.938 172.906L379.621 169.333C380.337 168.261 380.933 167.19 381.528 166.118L389.753 170.643Z" fill="#01F093"/>
<path d="M298.095 200.413L362.815 163.141C366.63 160.997 372.827 160.997 376.642 163.141L381.648 165.999C381.052 167.071 380.456 168.142 379.74 169.214L372.827 165.284C371.159 164.332 368.298 164.332 366.63 165.284L301.909 202.557C300.836 203.152 299.168 203.152 298.095 202.557C297.022 202.08 297.022 201.009 298.095 200.413Z" fill="#00C175"/>
<path d="M297.38 201.604V110.745L365.08 72.9966L374.615 72.4012L383.793 78.2362L389.395 83.2376L323.363 187.791L301.79 200.532L297.38 201.604Z" fill="#00C175"/>
<path d="M322.41 213.036L302.147 201.366V113.603L323.006 123.249L322.41 213.036Z" fill="#00D984"/>
<path d="M392.613 83.833V174.573L321.456 215.298L320.503 214.941V124.082L392.613 83.833Z" fill="#01F093"/>
<path d="M352.565 84.6666L366.749 76.5691C368.417 75.7355 371.04 75.8546 372.589 76.6882L385.7 84.3094C386.773 84.9048 387.13 85.7383 386.892 86.4528L351.135 107.768L322.41 125.392L302.028 113.603L352.565 84.6666Z" fill="white"/>
<path d="M323.006 122.653V212.798V214.703V216.489C322.41 216.489 321.695 216.37 321.218 216.013C320.741 215.775 320.503 215.298 320.384 214.941V124.082L323.006 122.653Z" fill="#00C175"/>
<path d="M320.503 125.273V124.082L320.861 124.559L320.503 125.273Z" fill="white"/>
<path d="M325.032 125.154L389.752 87.7627C393.567 85.6192 393.567 82.0468 389.752 79.7843L376.642 72.1631C372.827 70.0196 366.63 70.0196 362.815 72.1631L298.095 109.554C297.022 110.15 297.022 111.103 298.095 111.698C299.168 112.293 300.836 112.293 301.909 111.698L366.63 74.4256C368.298 73.473 371.159 73.473 372.827 74.4256L385.938 82.0468C387.607 82.9994 387.607 84.6666 385.938 85.6192L321.218 122.892C320.145 123.487 320.145 124.44 321.218 125.035C322.291 125.75 323.959 125.75 325.032 125.154Z" fill="#01F093"/>
<path d="M341.957 168.142L375.569 148.732V115.032L341.957 134.442V168.142Z" fill="white"/>
<path d="M298.095 111.817C299.168 112.412 300.836 112.412 301.909 111.817L366.63 74.5447C368.298 73.592 371.159 73.592 372.827 74.5447L385.938 82.1659C387.011 82.7613 387.488 83.7139 387.13 84.5475C386.892 84.0712 386.534 83.7139 385.938 83.3567L372.827 75.7355C371.159 74.7828 368.298 74.7828 366.63 75.7355L301.909 113.008C300.836 113.603 299.168 113.603 298.095 113.008C297.261 112.532 297.142 111.936 297.499 111.341C297.738 111.46 297.857 111.579 298.095 111.817Z" fill="white"/>
<path d="M321.218 125.154C322.291 125.75 323.96 125.75 325.032 125.154L389.753 87.7627C391.421 86.81 392.375 85.6192 392.494 84.4284C392.852 86.0955 391.898 87.7627 389.753 88.9535L325.032 126.226C323.96 126.821 322.291 126.821 321.218 126.226C320.384 125.75 320.265 125.154 320.622 124.559C320.861 124.797 320.98 124.916 321.218 125.154Z" fill="white"/>
<path d="M420.265 189.458C424.079 191.601 424.079 195.174 420.265 197.436L355.545 234.709C354.472 235.304 352.803 235.304 351.731 234.709C350.658 234.113 350.658 233.161 351.731 232.565L416.451 195.293C418.12 194.34 418.12 192.673 416.451 191.72L410.134 188.148C410.849 187.076 411.445 186.004 412.041 184.933L420.265 189.458Z" fill="#D8C8FD"/>
<path d="M328.727 219.228L393.447 181.956C397.261 179.812 403.459 179.812 407.273 181.956L412.279 184.814C411.683 185.885 411.087 186.957 410.372 188.029L403.459 184.099C401.791 183.147 398.93 183.147 397.261 184.099L332.541 221.372C331.468 221.967 329.8 221.967 328.727 221.372C327.654 220.776 327.654 219.823 328.727 219.228Z" fill="#373737"/>
<path d="M327.893 220.419V129.56L395.712 91.8114L405.128 91.216L414.306 97.051L419.908 101.933L353.876 206.605L332.303 219.347L327.893 220.419Z" fill="#373737"/>
<path d="M352.923 231.851L332.66 220.181V132.418L353.638 142.064L352.923 231.851Z" fill="#A27BFD"/>
<path d="M423.126 102.648V193.387L351.969 234.113L351.016 233.756V142.897L423.126 102.648Z" fill="#D8C8FD"/>
<path d="M383.078 103.481L397.261 95.3838C398.93 94.5503 401.552 94.6694 403.102 95.5029L416.213 103.124C417.285 103.72 417.643 104.553 417.405 105.268L381.647 126.583L352.923 144.207L332.541 132.418L383.078 103.481Z" fill="white"/>
<path d="M353.638 141.468V231.613V233.518V235.304C353.042 235.304 352.327 235.185 351.85 234.828C351.373 234.59 351.135 234.113 351.016 233.756V142.897L353.638 141.468Z" fill="#373737"/>
<path d="M327.893 130.632V129.56H328.25L328.369 130.275L327.893 130.632Z" fill="white"/>
<path d="M351.016 143.969V142.897L351.373 143.373L351.016 143.969Z" fill="white"/>
<path d="M355.664 143.969L420.384 106.697C424.198 104.553 424.198 100.981 420.384 98.7181L407.273 91.0969C403.459 88.9535 397.261 88.9535 393.447 91.0969L328.727 128.369C327.654 128.965 327.654 129.917 328.727 130.513C329.8 131.108 331.468 131.108 332.541 130.513L397.261 93.2404C398.93 92.2878 401.791 92.2878 403.459 93.2404L416.57 100.862C418.239 101.814 418.239 103.481 416.57 104.434L351.85 141.706C350.777 142.302 350.777 143.254 351.85 143.85C352.923 144.564 354.591 144.564 355.664 143.969Z" fill="#D8C8FD"/>
<path d="M372.47 186.957L406.081 167.547V133.847L372.47 153.257V186.957Z" fill="white"/>
<path d="M328.727 130.513C329.8 131.108 331.468 131.108 332.541 130.513L397.261 93.2404C398.93 92.2877 401.791 92.2877 403.459 93.2404L416.57 100.862C417.643 101.457 418.12 102.41 417.762 103.243C417.524 102.767 417.166 102.41 416.57 102.052L403.459 94.4312C401.791 93.4786 398.93 93.4786 397.261 94.4312L332.541 131.704C331.468 132.299 329.8 132.299 328.727 131.704C327.893 131.227 327.773 130.632 328.131 130.036C328.25 130.275 328.369 130.394 328.727 130.513Z" fill="white"/>
<path d="M351.85 143.969C352.923 144.564 354.591 144.564 355.664 143.969L420.384 106.697C422.053 105.744 423.007 104.553 423.126 103.362C423.483 105.029 422.53 106.697 420.384 107.887L355.664 145.16C354.591 145.755 352.923 145.755 351.85 145.16C351.016 144.683 350.896 144.088 351.254 143.493C351.373 143.612 351.612 143.731 351.85 143.969Z" fill="white"/>
</g>
</g>
<mask id="mask1_19_537" style="mask-type:luminance" maskUnits="userSpaceOnUse" x="189" y="48" width="233" height="219">
<path d="M390.11 219.585L417.166 108.959L314.782 48.3469L189.99 94.7884L285.819 219.704C285.819 219.704 364.961 264.717 364.484 266.146C364.007 267.456 421.815 231.97 421.815 231.97L390.11 219.585Z" fill="white"/>
</mask>
<g mask="url(#mask1_19_537)">
<path d="M359.955 153.138C363.769 155.282 363.769 158.854 359.955 161.117L295.235 198.389C294.162 198.984 292.493 198.984 291.421 198.389C290.348 197.794 290.348 196.841 291.421 196.245L356.141 158.973C357.81 158.02 357.81 156.353 356.141 155.401L349.824 151.828C350.539 150.757 351.135 149.685 351.731 148.613L359.955 153.138Z" fill="#D8C8FD"/>
<path d="M268.417 182.908L333.137 145.636C336.951 143.493 343.149 143.493 346.963 145.636L351.969 148.494C351.373 149.566 350.777 150.637 350.062 151.709L343.149 147.779C341.481 146.827 338.62 146.827 336.951 147.779L272.231 185.052C271.158 185.647 269.49 185.647 268.417 185.052C267.344 184.456 267.344 183.504 268.417 182.908Z" fill="#373737"/>
<path d="M267.583 183.98V93.1213L335.402 55.3727L344.818 54.7773L353.996 60.7313L359.717 65.6136L293.566 170.286L271.993 182.908L267.583 183.98Z" fill="#373737"/>
<path d="M292.732 195.531L272.469 183.861V95.9792L293.328 105.744L292.732 195.531Z" fill="#A27BFD"/>
<path d="M362.816 66.3281V157.068L291.659 197.674L290.706 197.317V106.458L362.816 66.3281Z" fill="#D8C8FD"/>
<path d="M322.887 67.0426L337.07 58.9451C338.739 58.1115 341.361 58.2306 342.911 59.0641L356.022 66.6853C357.094 67.2807 357.452 68.1143 357.214 68.8288L321.457 90.1443L292.732 107.768L272.35 95.9792L322.887 67.0426Z" fill="white"/>
<path d="M293.328 105.029V195.174V197.079V198.865C292.732 198.865 292.017 198.746 291.54 198.389C291.063 198.151 290.825 197.674 290.706 197.317V106.458L293.328 105.029Z" fill="#373737"/>
<path d="M267.583 94.3121V93.1213H267.94L268.059 93.9549L267.583 94.3121Z" fill="white"/>
<path d="M290.706 107.649V106.458L291.063 106.935L290.706 107.649Z" fill="white"/>
<path d="M295.354 107.53L359.955 70.2578C363.769 68.1143 363.769 64.5419 359.955 62.2793L346.844 54.6582C343.03 52.5147 336.832 52.5147 333.018 54.6582L268.298 91.9305C267.225 92.5259 267.225 93.4786 268.298 94.074C269.37 94.6694 271.039 94.6694 272.112 94.074L336.832 56.8016C338.501 55.849 341.361 55.849 343.03 56.8016L356.141 64.4228C357.81 65.3754 357.81 67.0426 356.141 67.9952L291.421 105.268C290.348 105.863 290.348 106.816 291.421 107.411C292.613 108.126 294.281 108.126 295.354 107.53Z" fill="#D8C8FD"/>
<path d="M312.16 150.518L345.771 131.108V97.5273L312.16 116.818V150.518Z" fill="white"/>
<path d="M268.417 94.193C269.49 94.7884 271.158 94.7884 272.231 94.193L336.951 56.9207C338.62 55.968 341.481 55.968 343.149 56.9207L356.26 64.5419C357.333 65.1373 357.81 66.0899 357.452 66.9235C357.214 66.4472 356.856 66.0899 356.26 65.7327L343.149 58.1115C341.481 57.1589 338.62 57.1589 336.951 58.1115L272.231 95.3838C271.158 95.9792 269.49 95.9792 268.417 95.3838C267.583 94.9075 267.463 94.3121 267.821 93.7167C267.94 93.8358 268.178 94.074 268.417 94.193Z" fill="white"/>
<path d="M291.54 107.53C292.612 108.126 294.281 108.126 295.354 107.53L359.955 70.2578C361.624 69.3051 362.577 68.1143 362.696 66.9235C363.054 68.5906 362.1 70.2578 359.955 71.4486L295.235 108.721C294.162 109.316 292.493 109.316 291.421 108.721C290.586 108.245 290.467 107.649 290.825 107.054C291.063 107.173 291.301 107.411 291.54 107.53Z" fill="white"/>
<path d="M389.753 170.643C393.567 172.786 393.567 176.359 389.753 178.621L325.032 215.894C323.96 216.489 322.291 216.489 321.218 215.894C320.146 215.298 320.146 214.346 321.218 213.75L385.939 176.478C387.607 175.525 387.607 173.858 385.939 172.906L379.622 169.333C380.337 168.261 380.933 167.19 381.529 166.118L389.753 170.643Z" fill="#01F093"/>
<path d="M298.095 200.413L362.816 163.141C366.63 160.997 372.828 160.997 376.642 163.141L381.648 165.999C381.052 167.071 380.456 168.142 379.741 169.214L372.828 165.284C371.159 164.332 368.298 164.332 366.63 165.284L301.909 202.557C300.837 203.152 299.168 203.152 298.095 202.557C297.023 202.08 297.023 201.009 298.095 200.413Z" fill="#00C175"/>
<path d="M297.38 201.604V110.745L365.08 72.9966L374.615 72.4012L383.793 78.2362L389.395 83.2376L323.364 187.791L301.79 200.532L297.38 201.604Z" fill="#00C175"/>
<path d="M322.41 213.036L302.148 201.366V113.603L323.006 123.249L322.41 213.036Z" fill="#00D984"/>
<path d="M392.613 83.833V174.573L321.457 215.298L320.503 214.941V124.082L392.613 83.833Z" fill="#01F093"/>
<path d="M352.565 84.6666L366.749 76.5691C368.418 75.7355 371.04 75.8546 372.589 76.6882L385.7 84.3094C386.773 84.9048 387.131 85.7383 386.892 86.4528L351.135 107.768L322.41 125.392L302.029 113.603L352.565 84.6666Z" fill="white"/>
<path d="M323.006 122.653V212.798V214.703V216.489C322.41 216.489 321.695 216.37 321.218 216.013C320.741 215.775 320.503 215.298 320.384 214.941V124.082L323.006 122.653Z" fill="#00C175"/>
<path d="M297.38 111.817V110.745H297.738L297.857 111.46L297.38 111.817Z" fill="white"/>
<path d="M320.503 125.273V124.082L320.861 124.559L320.503 125.273Z" fill="white"/>
<path d="M325.032 125.154L389.753 87.7627C393.567 85.6192 393.567 82.0468 389.753 79.7843L376.642 72.1631C372.828 70.0196 366.63 70.0196 362.816 72.1631L298.095 109.554C297.023 110.15 297.023 111.103 298.095 111.698C299.168 112.293 300.837 112.293 301.909 111.698L366.63 74.4256C368.298 73.473 371.159 73.473 372.828 74.4256L385.939 82.0468C387.607 82.9994 387.607 84.6666 385.939 85.6192L321.218 122.892C320.146 123.487 320.146 124.44 321.218 125.035C322.291 125.75 323.96 125.75 325.032 125.154Z" fill="#01F093"/>
<path d="M341.957 168.142L375.569 148.732V115.032L341.957 134.442V168.142Z" fill="white"/>
<path d="M298.095 111.817C299.168 112.412 300.837 112.412 301.909 111.817L366.63 74.5447C368.298 73.592 371.159 73.592 372.828 74.5447L385.939 82.1659C387.011 82.7613 387.488 83.7139 387.131 84.5475C386.892 84.0712 386.535 83.7139 385.939 83.3567L372.828 75.7355C371.159 74.7828 368.298 74.7828 366.63 75.7355L301.909 113.008C300.837 113.603 299.168 113.603 298.095 113.008C297.261 112.532 297.142 111.936 297.499 111.341C297.738 111.46 297.857 111.579 298.095 111.817Z" fill="white"/>
<path d="M321.218 125.154C322.291 125.75 323.96 125.75 325.032 125.154L389.753 87.7627C391.422 86.81 392.375 85.6192 392.494 84.4284C392.852 86.0955 391.898 87.7627 389.753 88.9535L325.032 126.226C323.96 126.821 322.291 126.821 321.218 126.226C320.384 125.75 320.265 125.154 320.622 124.559C320.861 124.797 320.98 124.916 321.218 125.154Z" fill="white"/>
<path d="M420.265 189.458C424.079 191.601 424.079 195.174 420.265 197.436L355.545 234.709C354.472 235.304 352.804 235.304 351.731 234.709C350.658 234.113 350.658 233.161 351.731 232.565L416.451 195.293C418.12 194.34 418.12 192.673 416.451 191.72L410.134 188.148C410.849 187.076 411.445 186.004 412.041 184.933L420.265 189.458Z" fill="#D8C8FD"/>
<path d="M328.727 219.228L393.448 181.956C397.262 179.812 403.46 179.812 407.274 181.956L412.28 184.814C411.684 185.885 411.088 186.957 410.373 188.029L403.46 184.099C401.791 183.147 398.93 183.147 397.262 184.099L332.541 221.372C331.469 221.967 329.8 221.967 328.727 221.372C327.654 220.776 327.654 219.823 328.727 219.228Z" fill="#373737"/>
<path d="M327.893 220.419V129.56L395.712 91.8114L405.128 91.216L414.306 97.051L419.908 101.933L353.876 206.605L332.303 219.347L327.893 220.419Z" fill="#373737"/>
<path d="M352.923 231.851L332.66 220.181V132.418L353.638 142.064L352.923 231.851Z" fill="#A27BFD"/>
<path d="M423.126 102.648V193.387L351.969 234.113L351.016 233.756V142.897L423.126 102.648Z" fill="#D8C8FD"/>
<path d="M383.078 103.481L397.262 95.3838C398.93 94.5503 401.553 94.6694 403.102 95.5029L416.213 103.124C417.286 103.72 417.643 104.553 417.405 105.268L381.648 126.583L352.923 144.207L332.541 132.418L383.078 103.481Z" fill="white"/>
<path d="M353.638 141.468V231.613V233.518V235.304C353.042 235.304 352.327 235.185 351.85 234.828C351.373 234.59 351.135 234.113 351.016 233.756V142.897L353.638 141.468Z" fill="#373737"/>
<path d="M327.893 130.632V129.56H328.25L328.37 130.275L327.893 130.632Z" fill="white"/>
<path d="M351.016 143.969V142.897L351.373 143.373L351.016 143.969Z" fill="white"/>
<path d="M355.664 143.969L420.385 106.697C424.199 104.553 424.199 100.981 420.385 98.7181L407.274 91.0969C403.46 88.9535 397.262 88.9535 393.448 91.0969L328.727 128.369C327.654 128.965 327.654 129.917 328.727 130.513C329.8 131.108 331.469 131.108 332.541 130.513L397.262 93.2404C398.93 92.2878 401.791 92.2878 403.46 93.2404L416.57 100.862C418.239 101.814 418.239 103.481 416.57 104.434L351.85 141.706C350.777 142.302 350.777 143.254 351.85 143.85C352.923 144.564 354.591 144.564 355.664 143.969Z" fill="#D8C8FD"/>
<path d="M372.47 186.957L406.082 167.547V133.847L372.47 153.257V186.957Z" fill="white"/>
<path d="M328.727 130.513C329.8 131.108 331.469 131.108 332.541 130.513L397.262 93.2404C398.93 92.2877 401.791 92.2877 403.46 93.2404L416.571 100.862C417.643 101.457 418.12 102.41 417.762 103.243C417.524 102.767 417.166 102.41 416.571 102.052L403.46 94.4312C401.791 93.4786 398.93 93.4786 397.262 94.4312L332.541 131.704C331.469 132.299 329.8 132.299 328.727 131.704C327.893 131.227 327.774 130.632 328.131 130.036C328.25 130.275 328.37 130.394 328.727 130.513Z" fill="white"/>
<path d="M351.85 143.969C352.923 144.564 354.592 144.564 355.664 143.969L420.385 106.697C422.053 105.744 423.007 104.553 423.126 103.362C423.484 105.029 422.53 106.697 420.385 107.887L355.664 145.16C354.592 145.755 352.923 145.755 351.85 145.16C351.016 144.683 350.897 144.088 351.254 143.493C351.373 143.612 351.612 143.731 351.85 143.969Z" fill="white"/>
</g>
<path opacity="0.5" d="M447.917 335.451C445.414 334.022 441.243 334.022 438.621 335.451L319.192 404.399C316.689 405.828 316.689 408.21 319.192 409.758C321.695 411.187 325.866 411.187 328.489 409.758L447.917 340.81C450.42 339.262 450.42 336.88 447.917 335.451Z" fill="#6F3AF9"/>
<path d="M468.299 298.06C468.18 297.822 467.941 297.822 467.703 297.822L460.432 299.37L463.293 304.252L468.18 298.655C468.418 298.536 468.418 298.298 468.299 298.06Z" fill="#D8C8FD"/>
<path d="M465.439 301.632C465.439 300.56 464.723 299.37 463.77 298.774C463.293 298.536 462.936 298.536 462.697 298.655C454.354 298.536 446.13 300.799 438.978 304.966L438.501 305.324L447.441 320.566L450.063 318.78C455.665 315.088 460.433 310.206 463.889 304.371L465.081 302.466C465.319 302.466 465.439 302.108 465.439 301.632Z" fill="#373737"/>
<path d="M449.229 316.517C449.229 312.468 446.368 307.705 442.911 305.681C439.455 303.657 436.594 305.324 436.714 309.372C436.714 313.421 439.574 318.184 443.031 320.209C446.487 322.114 449.229 320.566 449.229 316.517Z" fill="#D8C8FD"/>
<path d="M394.163 353.79L447.441 320.566L438.501 305.324L383.555 335.689L394.163 353.79Z" fill="#D8C8FD"/>
<path d="M396.308 348.907C396.308 344.144 392.971 338.428 388.799 336.166C384.747 333.784 381.409 335.808 381.409 340.453C381.409 345.216 384.746 350.932 388.918 353.194C392.971 355.576 396.308 353.671 396.308 348.907Z" fill="#D8C8FD"/>
<path d="M393.209 350.693C393.209 345.93 389.872 340.214 385.7 337.952C381.648 335.57 378.31 337.595 378.31 342.239C378.31 347.002 381.648 352.718 385.819 354.98C389.991 357.362 393.328 355.457 393.209 350.693Z" fill="#D8C8FD"/>
<path d="M380.465 337.541L309.976 378.933L320.605 397.001L391.095 355.609L380.465 337.541Z" fill="#D8C8FD"/>
<path d="M322.767 392.134C322.767 387.37 319.43 381.655 315.258 379.392C311.206 377.01 307.869 379.035 307.869 383.679C307.869 388.442 311.206 394.158 315.378 396.421C319.549 398.802 322.767 396.897 322.767 392.134Z" fill="#D8C8FD"/>
<path d="M320.145 390.586C320.026 387.847 317.761 384.393 315.02 382.845C312.398 381.297 310.372 382.369 310.491 385.227C310.61 387.966 312.875 391.419 315.616 392.967C318.238 394.515 320.264 393.444 320.145 390.586Z" fill="#703AF9"/>
<path d="M396.785 348.669C396.785 343.906 393.447 338.19 389.276 335.927C387.607 334.975 386.058 334.737 384.866 335.094C386.177 333.665 388.441 333.546 390.825 334.975C394.878 337.356 398.334 342.953 398.334 347.716C398.334 350.574 397.142 352.361 395.355 352.837C396.308 351.884 396.785 350.455 396.785 348.669Z" fill="white"/>
<path d="M396.785 348.669C396.785 343.906 393.447 338.19 389.276 335.927C387.249 334.737 385.342 334.618 384.031 335.451L379.979 337.833L381.886 341.048C382.243 345.335 385.104 350.217 388.68 352.599L390.587 355.814L394.639 353.432C396.069 352.718 396.785 351.051 396.785 348.669Z" fill="#373737"/>
<path d="M392.851 351.051C392.851 346.288 389.514 340.572 385.342 338.309C381.29 335.927 377.953 337.952 377.953 342.596C377.953 347.359 381.29 353.075 385.462 355.338C389.514 357.6 392.851 355.695 392.851 351.051Z" fill="#D8C8FD"/>
<path d="M316.808 392.729L312.279 384.989L297.38 393.801C295.234 395.111 294.519 397.85 295.83 399.993C297.141 402.136 299.883 402.851 302.028 401.541L316.808 392.729Z" fill="#01F093"/>
<path d="M317.642 390.705C317.642 388.68 316.212 386.18 314.424 385.227C312.636 384.274 311.206 385.108 311.206 387.132C311.206 389.157 312.636 391.657 314.424 392.61C316.331 393.563 317.762 392.729 317.642 390.705Z" fill="#01F093"/>
<path d="M334.329 363.197L332.064 361.887C330.753 361.173 329.085 361.292 327.297 362.363L319.669 366.889C318.238 367.722 317.046 369.746 317.046 371.533V375.343C317.046 375.939 316.689 376.772 316.331 377.249L316.57 379.035L314.663 377.963C314.424 377.844 314.186 377.487 314.186 377.01V373.2C314.186 369.746 316.57 365.46 319.669 363.673L327.297 359.148C329.919 357.6 332.303 357.362 334.091 358.434L336.355 359.744C337.666 360.458 339.335 360.339 341.123 359.267L372.112 341.048C372.47 340.81 372.827 340.81 373.185 340.929L375.092 342.001L373.423 342.596C373.185 343.311 372.708 343.906 372.112 344.263L341.123 362.483C338.501 364.031 336.117 364.269 334.329 363.197Z" fill="#373737"/>
<path d="M333.971 363.078C332.66 362.363 330.992 362.483 329.204 363.554L321.576 368.079C320.145 368.913 318.953 370.937 318.953 372.723V376.534C318.953 377.487 318.357 378.558 317.523 379.035C316.689 379.511 316.093 379.154 316.093 378.201V374.391C316.093 370.937 318.477 366.65 321.576 364.864L329.204 360.339C331.826 358.791 334.21 358.553 335.998 359.625L338.262 360.934C339.573 361.649 341.242 361.53 343.03 360.458L374.019 342.239C374.854 341.762 375.45 342.12 375.45 343.072C375.45 344.025 374.854 345.097 374.019 345.573L343.03 363.792C340.408 365.34 338.024 365.579 336.236 364.507L333.971 363.078Z" fill="#373737"/>
<path d="M318.834 373.319V377.13C318.834 377.13 318.834 377.129 318.834 377.249C318.953 377.01 318.953 376.772 318.953 376.534V372.724C318.953 372.604 318.953 372.485 318.953 372.366C318.834 372.604 318.834 372.962 318.834 373.319Z" fill="white"/>
<path opacity="0.5" d="M292.016 311.992C305.445 311.992 316.331 305.701 316.331 297.941C316.331 290.18 305.445 283.889 292.016 283.889C278.588 283.889 267.702 290.18 267.702 297.941C267.702 305.701 278.588 311.992 292.016 311.992Z" fill="#6F3AF9"/>
<path d="M319.669 285.913V278.173H318.238C316.927 275.911 314.782 273.767 311.564 271.981C300.717 265.789 283.316 265.789 272.469 271.981C269.37 273.767 267.106 275.911 265.795 278.173H264.364V285.913C264.364 289.962 266.986 294.13 272.469 297.226C283.316 303.418 300.717 303.418 311.564 297.226C316.927 294.13 319.669 289.962 319.669 285.913Z" fill="#01F093"/>
<path d="M292.016 294.13C307.288 294.13 319.669 286.986 319.669 278.173C319.669 269.36 307.288 262.216 292.016 262.216C276.745 262.216 264.364 269.36 264.364 278.173C264.364 286.986 276.745 294.13 292.016 294.13Z" fill="#01F093"/>
<path d="M311.564 289.486C300.717 295.678 283.316 295.678 272.469 289.486C267.344 286.509 264.603 282.579 264.364 278.769C264.126 283.056 266.748 287.342 272.469 290.558C283.316 296.75 300.717 296.75 311.564 290.558C317.166 287.342 319.907 283.056 319.669 278.769C319.43 282.579 316.689 286.509 311.564 289.486Z" fill="white"/>
<path d="M278.667 283.413C278.19 283.175 277.952 282.817 277.952 282.341V271.981C277.952 271.147 279.025 270.552 280.455 270.552C281.885 270.552 282.958 271.147 282.958 271.981V280.555L307.988 277.459C309.299 277.34 310.61 277.816 310.968 278.53C311.206 279.364 310.372 280.078 309.061 280.198L281.051 283.651C280.336 283.77 279.501 283.651 279.025 283.413C278.786 283.532 278.786 283.532 278.667 283.413Z" fill="white"/>
<path opacity="0.5" d="M149.107 197.674L128.606 185.766L149.107 173.977L169.727 185.766L149.107 197.674Z" fill="#6F3AF9"/>
<path d="M169.727 170.762L149.107 182.67V158.973L169.727 147.065V170.762Z" fill="#00C175"/>
<path d="M149.107 158.973L128.606 147.065L149.107 135.276L169.727 147.065L149.107 158.973Z" fill="#01F093"/>
<path d="M149.107 182.67L128.606 170.762V147.065L149.107 158.973V182.67Z" fill="#01F093"/>
<path d="M141.717 169.81L135.996 166.475V159.926L141.717 163.141V169.81Z" fill="white"/>
<path opacity="0.5" d="M21.3351 410.115L0 397.73L21.3351 385.346L42.7894 397.73L21.3351 410.115Z" fill="#6F3AF9"/>
<path d="M42.7892 382.131L21.335 394.396V369.746L42.7892 357.362V382.131Z" fill="#6F3AF9"/>
<path d="M21.3351 369.746L0 357.362L21.3351 345.097L42.7894 357.362L21.3351 369.746Z" fill="#D8C8FD"/>
<path d="M21.3351 394.396L0 382.131V357.362L21.3351 369.746V394.396Z" fill="#373737"/>
<path d="M13.7068 381.059L7.74731 377.606V370.699L13.7068 374.152V381.059Z" fill="white"/>
<path opacity="0.5" d="M99.1664 381.297L19.5472 335.332C17.7593 334.26 17.7593 331.76 19.5472 330.688L95.2331 286.985L179.977 335.927C181.765 336.999 181.765 339.5 179.977 340.572L109.298 381.297C106.199 383.083 102.265 383.083 99.1664 381.297Z" fill="#6F3AF9"/>
<path d="M96.9018 255.071C96.9018 250.07 93.3261 247.927 88.916 250.427L14.422 293.296C13.2301 294.011 12.2766 295.678 12.2766 297.107C12.2766 298.536 13.2301 299.012 14.422 298.417L88.916 255.548C90.9423 254.357 92.4917 255.31 92.4917 257.572V265.908C93.922 265.789 95.3523 265.789 96.9018 265.789V255.071Z" fill="#01F093"/>
<path d="M14.3029 313.421L88.7969 286.271C93.207 283.77 96.7827 277.578 96.7827 272.576V265.908C95.3524 265.908 93.9221 265.908 92.3726 266.027V275.077C92.3726 277.34 90.704 280.078 88.7969 281.269L14.3029 308.42C13.111 309.134 12.1575 310.801 12.1575 312.23C12.1575 313.54 13.111 314.136 14.3029 313.421Z" fill="#00C175"/>
<path d="M12.7534 313.54L103.338 365.936L180.097 320.209L186.175 311.159L185.58 314.374L183.911 305.919L41.4783 311.397L16.4483 309.73L12.7534 313.54Z" fill="#00C175"/>
<path d="M15.7332 297.702V308.896L103.338 359.505L105.722 348.907L15.7332 297.702Z" fill="#00D984"/>
<path d="M185.103 302.347L94.6372 250.07L12.9917 297.464L12.8726 298.655L103.457 350.932L185.103 302.347Z" fill="#01F093"/>
<path d="M156.259 329.259L177.594 316.636C179.382 315.326 180.812 312.826 180.812 310.682V309.015C180.812 307.705 180.216 306.753 179.382 306.514L137.427 329.854L103.338 348.312V359.625L156.259 329.259Z" fill="white"/>
<path d="M106.318 349.264L16.3292 297.226L14.4221 296.154L12.6343 295.202C12.2767 295.797 12.0383 296.631 12.0383 297.226C12.0383 297.941 12.2767 298.417 12.6343 298.655L103.219 351.051L106.318 349.264Z" fill="#00C175"/>
<path d="M102.265 365.34L103.338 365.936L103.576 365.579L102.861 364.983L102.265 365.34Z" fill="white"/>
<path d="M102.265 350.336L103.457 350.932L103.1 350.336H102.265Z" fill="white"/>
<path d="M105.007 345.811L179.501 302.942C183.911 300.441 187.487 302.466 187.487 307.586V309.253C187.487 314.255 183.911 320.447 179.501 322.948L105.007 365.817C103.815 366.531 102.861 365.936 102.861 364.507C102.861 363.078 103.815 361.411 105.007 360.696L179.501 317.827C181.527 316.636 183.076 313.897 183.076 311.635V309.968C183.076 307.705 181.527 306.753 179.501 307.943L105.007 350.813C103.815 351.527 102.861 350.932 102.861 349.503C102.861 348.193 103.815 346.526 105.007 345.811Z" fill="#01F093"/>
<path d="M102.861 364.507C102.861 363.078 103.815 361.411 105.007 360.696L179.501 317.827C181.527 316.636 183.076 313.897 183.076 311.635V309.968C183.076 308.42 182.361 307.586 181.408 307.467C181.765 307.943 181.885 308.539 181.885 309.253V310.92C181.885 313.183 180.216 315.922 178.309 317.113L103.815 359.982C102.623 360.696 101.669 362.363 101.669 363.792C101.669 364.864 102.265 365.46 102.981 365.34C102.861 365.221 102.861 364.864 102.861 364.507Z" fill="white"/>
<path d="M102.861 349.622C102.861 348.193 103.815 346.526 105.007 345.811L179.501 302.942C181.408 301.87 183.076 301.632 184.507 302.108C183.076 300.918 180.812 300.799 178.309 302.228L103.815 345.097C102.623 345.811 101.669 347.478 101.669 348.907C101.669 349.979 102.265 350.574 102.981 350.455C102.861 350.217 102.861 349.979 102.861 349.622Z" fill="white"/>
<path d="M68.4153 303.418L109.536 279.721L145.174 300.322L104.053 324.019L68.4153 303.418Z" fill="white"/>
<path opacity="0.5" d="M170.084 417.855C186.533 427.382 213.231 427.382 229.68 417.855C246.128 408.329 246.128 392.967 229.68 383.441C213.231 373.914 186.533 373.914 170.084 383.441C153.636 392.967 153.636 408.329 170.084 417.855ZM186.175 392.729C193.684 388.323 205.961 388.323 213.589 392.729C221.098 397.135 221.098 404.161 213.589 408.567C206.08 412.973 193.803 412.973 186.175 408.567C178.547 404.161 178.547 397.135 186.175 392.729Z" fill="#6F3AF9"/>
<path d="M235.878 377.844L220.86 378.082C219.787 376.653 218.118 375.224 216.092 374.152C207.868 369.389 194.876 369.032 185.818 373.081L176.879 364.745L163.172 364.983C163.887 364.507 164.602 364.15 165.317 363.673C184.388 352.599 215.377 352.599 234.567 363.673C238.023 365.698 241.003 367.96 243.148 370.342L235.878 377.844Z" fill="#00804D"/>
<path d="M163.172 342.953V364.745L176.879 364.626V342.715L163.172 342.953Z" fill="#00C175"/>
<path d="M185.818 351.17V372.962L176.878 364.626V342.715L185.818 351.17Z" fill="#00804D"/>
<path d="M220.86 356.29V378.082L201.074 362.006L185.818 372.962V351.17L199.882 344.382C199.882 344.382 219.191 350.336 220.264 350.574C221.217 350.813 220.86 356.29 220.86 356.29Z" fill="#00804D"/>
<path d="M235.878 356.052V377.844L220.86 378.082V356.29L235.878 356.052Z" fill="#00804D"/>
<path d="M243.029 348.312V370.223L235.878 377.844V356.052L243.029 348.312Z" fill="#00C175"/>
<path d="M235.878 356.052L220.86 356.29C219.787 354.861 218.118 353.432 216.092 352.361C207.868 347.597 194.876 347.24 185.818 351.289L176.879 342.953L163.172 343.191C163.887 342.715 164.602 342.358 165.317 341.881C184.388 330.807 215.377 330.807 234.567 341.881C238.023 343.906 241.003 346.168 243.148 348.55L235.878 356.052Z" fill="#01F093"/>
<path d="M181.289 353.79V373.914L168.297 370.818C168.297 370.818 169.012 359.029 169.37 358.791C169.608 358.434 181.289 353.79 181.289 353.79Z" fill="#373737"/>
<path d="M191.181 373.914V395.706L189.751 397.254L180.573 392.015C180.573 392.015 182.004 375.343 182.123 374.986C182.361 374.629 191.181 373.914 191.181 373.914Z" fill="#6F3AF9"/>
<path d="M173.422 368.198L181.289 375.581C174.733 380.821 175.567 388.085 183.672 392.729C185.937 394.039 188.44 394.992 191.181 395.587L183.076 404.28L190.228 411.068C181.05 409.996 172.349 407.495 165.198 403.327C148.75 393.801 146.485 379.273 158.285 368.437L173.422 368.198Z" fill="#703AF9"/>
<path d="M190.228 389.276V411.068L172.349 404.28L150.895 383.798L151.014 360.577L173.66 378.558L190.228 389.276Z" fill="#703AF9"/>
<path d="M173.422 346.406L181.289 353.79C174.733 359.029 175.567 366.293 183.672 370.937C185.937 372.247 188.44 373.2 191.181 373.795L183.076 382.488L190.228 389.276C181.05 388.204 172.349 385.703 165.198 381.535C148.75 372.009 146.485 357.481 158.285 346.645L173.422 346.406Z" fill="#D8C8FD"/>
<path d="M190.228 404.28L197.379 396.659C204.054 397.016 210.967 395.825 216.092 392.848C221.336 389.752 223.482 385.703 222.648 381.655L239.692 381.416L246.247 374.391C251.968 384.274 248.035 395.587 234.447 403.327C224.435 409.043 211.205 411.782 198.094 411.544L190.228 404.28Z" fill="#703AF9"/>
<path d="M198.214 389.871V411.663L248.75 383.56V361.768L241.361 364.745L198.214 389.871Z" fill="#703AF9"/>
<path d="M190.228 382.369V404.28L198.214 411.663V389.871L190.228 382.369Z" fill="#6F3AF9"/>
<path d="M190.228 382.369L197.379 374.748C204.054 375.105 210.967 373.914 216.092 370.937C221.336 367.841 223.482 363.792 222.648 359.744L239.692 359.505L246.247 352.48C251.968 362.363 248.035 373.676 234.447 381.416C224.435 387.132 211.205 389.871 198.094 389.633L190.228 382.369Z" fill="#373737"/>
</g>
<defs>
<clipPath id="clip0_19_537">
<rect width="477" height="425" fill="white"/>
</clipPath>
</defs>
</svg>
