<svg width="72" height="72" viewBox="0 0 72 72" fill="none" xmlns="http://www.w3.org/2000/svg">
<rect width="72" height="72" rx="12" fill="#F4F4F4"/>
<path opacity="0.4" d="M38.6102 23.7649V24.1309C37.6288 24.1117 36.6475 24.1117 35.6661 24.1117V23.7841C35.6661 22.4547 34.5474 21.3757 33.2127 21.3757H31.2696C29.0518 21.3757 27.2461 19.603 27.2461 17.4451C27.2461 16.6551 27.9134 16 28.7181 16C29.5425 16 30.1902 16.6551 30.1902 17.4451C30.1902 18.0231 30.6808 18.4855 31.2696 18.4855H33.2127C36.1764 18.5048 38.5905 20.8747 38.6102 23.7649Z" fill="#6F3AF9"/>
<path fill-rule="evenodd" clip-rule="evenodd" d="M42.328 24.1653C42.9582 24.174 43.5899 24.1826 44.2237 24.1891C51.0343 24.1891 56 29.0446 56 35.7497V44.3623C56 51.0675 51.0343 55.9229 44.2237 55.9229C41.4956 55.9807 38.7674 56 36.0196 56C33.2718 56 30.5044 55.9807 27.7763 55.9229C20.9657 55.9229 16 51.0675 16 44.3623V35.7497C16 29.0446 20.9657 24.1891 27.7959 24.1891C30.367 24.1506 32.9971 24.1121 35.6663 24.1121C36.6477 24.1121 37.629 24.1121 38.6104 24.1313C39.8477 24.1313 41.085 24.1483 42.328 24.1653ZM33.7036 41.4915H31.6428V43.5338C31.6428 44.3238 30.9755 44.9789 30.1708 44.9789C29.3464 44.9789 28.6987 44.3238 28.6987 43.5338V41.4915H26.6183C25.8135 41.4915 25.1462 40.8556 25.1462 40.0464C25.1462 39.2564 25.8135 38.6013 26.6183 38.6013H28.6987V36.5782C28.6987 35.7882 29.3464 35.1331 30.1708 35.1331C30.9755 35.1331 31.6428 35.7882 31.6428 36.5782V38.6013H33.7036C34.5083 38.6013 35.1757 39.2564 35.1757 40.0464C35.1757 40.8556 34.5083 41.4915 33.7036 41.4915ZM42.0451 38.2352H42.2414C43.0461 38.2352 43.7134 37.5994 43.7134 36.7902C43.7134 36.0002 43.0461 35.3451 42.2414 35.3451H42.0451C41.2208 35.3451 40.5731 36.0002 40.5731 36.7902C40.5731 37.5994 41.2208 38.2352 42.0451 38.2352ZM45.4014 44.8633H45.5976C46.4024 44.8633 47.0697 44.2275 47.0697 43.4182C47.0697 42.6283 46.4024 41.9732 45.5976 41.9732H45.4014C44.577 41.9732 43.9293 42.6283 43.9293 43.4182C43.9293 44.2275 44.577 44.8633 45.4014 44.8633Z" fill="#6F3AF9"/>
</svg>
