<svg width="126" height="48" viewBox="0 0 126 48" fill="none" xmlns="http://www.w3.org/2000/svg">
<g clip-path="url(#clip0_56_388)">
<path d="M42.8384 2.70924C43.2817 1.42444 44.3893 0.318113 45.7738 0.107489C46.6659 0.00439463 47.567 0.0786672 48.4625 0.0542792C49.2206 0.0309997 49.9955 0.192847 50.6319 0.614094C51.696 1.30694 52.3692 2.50971 52.4887 3.75793C52.568 4.68356 52.52 5.61252 52.5345 6.54038C52.5658 7.61123 52.3838 8.70537 51.8087 9.62878C50.5805 8.29409 48.6981 7.58019 46.8859 7.80855C45.5126 7.94823 44.2162 8.62222 43.2873 9.63322C42.7111 8.71202 42.5158 7.61234 42.5682 6.54148C42.6218 5.26444 42.403 3.94195 42.8384 2.70924Z" fill="#01F093"/>
<path d="M61.3976 2.44653C61.9191 1.17614 63.1361 0.147411 64.5485 0.0720302C65.4384 0.0365568 66.3305 0.0598362 67.2204 0.0587277C68.2498 0.0609448 69.2514 0.549813 69.9101 1.33023C70.6259 2.14944 70.9764 3.23803 70.982 4.31443C70.9843 5.24228 70.9876 6.17125 70.9809 7.09799C70.9642 7.98482 70.7319 8.87166 70.2607 9.62769C69.3262 8.62667 68.0366 7.94824 66.6655 7.80857C64.8522 7.58021 62.9653 8.28967 61.7404 9.63212C61.1419 8.68099 60.9711 7.53919 61.0191 6.43508C61.0649 5.10482 60.8416 3.70473 61.3976 2.44653Z" fill="#01F093"/>
<path d="M68.1549 16.7001C68.4575 16.586 68.7869 16.5693 69.1085 16.5704C70.6705 16.5749 72.2325 16.5715 73.7957 16.5727C74.0391 16.5516 74.3093 16.6591 74.4087 16.8952C74.5516 17.2289 74.4266 17.5914 74.3004 17.9096C73.3792 20.0923 72.4614 22.2761 71.5425 24.4588C71.3047 24.9643 71.1596 25.5031 70.9865 26.0308C70.2741 28.0295 69.4278 29.9872 68.3481 31.8185C67.5319 33.1776 66.6007 34.5023 65.3692 35.5232C62.7174 37.3213 59.4984 38.3157 56.2783 38.1893C54.0597 38.2758 51.7942 37.9942 49.7666 37.053C49.3546 36.8402 48.889 36.7005 48.544 36.3824C48.1387 35.9833 48.1197 35.2749 48.4881 34.847C49.8079 33.1997 51.0718 31.487 52.0175 29.597C52.1995 29.26 52.2956 28.8686 52.5613 28.5815C52.8728 28.2401 53.3652 28.0871 53.8196 28.1536C55.442 28.3576 57.09 28.341 58.7123 28.1425C59.5553 28.0195 60.4407 27.8466 61.1263 27.3089C62.0285 26.6272 62.9317 25.8545 63.4063 24.8058C64.505 22.581 65.617 20.3617 66.7168 18.1368C67.0082 17.5171 67.4884 16.9363 68.1549 16.7001Z" fill="#01F093"/>
<path d="M10.8997 12.7205C12.2842 12.5498 13.6832 12.5997 15.0755 12.6119C17.3153 12.6884 19.621 13.1052 21.5381 14.3157C22.7585 15.0795 23.7667 16.1626 24.4578 17.4175C24.9391 18.3021 24.9447 19.353 24.8084 20.3252C24.5684 21.8561 23.9833 23.3072 23.3346 24.7072C22.8545 25.7726 22.2638 26.7858 21.815 27.8644C19.2168 32.9094 16.3819 37.8291 13.6319 42.792C13.0278 43.9117 11.7728 44.6345 10.4955 44.62C8.59959 44.6145 6.7037 44.6267 4.8067 44.6134C3.93133 44.6034 3.35073 43.5314 3.80404 42.7954C5.32031 40.3178 6.86895 37.859 8.38968 35.3836C10.1438 32.3108 12.0497 29.3254 13.8339 26.2692C14.3989 25.2305 14.9684 24.194 15.4965 23.1364C15.9531 22.2884 16.0536 21.2597 15.7935 20.3351C15.6327 19.7332 15.1749 19.1811 14.543 19.0426C13.8384 18.8996 13.1149 18.9295 12.4014 18.9284C11.0303 18.9772 9.53302 19.2078 8.48347 20.1611C7.70301 20.8617 7.59247 21.9636 7.53553 22.9447C7.4998 23.6929 7.66393 24.5443 8.29813 25.0243C8.90218 25.5076 9.7072 25.542 10.4062 25.8158C10.8059 25.9654 11.2279 26.1528 11.478 26.5142C11.6154 26.7104 11.6187 26.9731 11.5294 27.1893C11.1453 28.1848 10.5256 29.0616 10.0076 29.9884C9.51739 30.8275 9.05626 31.6878 8.49464 32.4848C8.17419 32.9581 7.66281 33.3007 7.09561 33.4038C5.51012 33.672 3.79623 33.1987 2.64395 32.0669C1.16342 30.6302 0.430966 28.596 0.148481 26.5962C-0.22891 23.5344 0.481211 20.313 2.2621 17.7689C4.24508 14.962 7.50315 13.1739 10.8997 12.7205Z" fill="#6F3AFA"/>
<path d="M39.644 12.8724C42.0825 12.7859 44.5835 12.7504 46.9439 13.4533C47.5178 13.6384 48.1018 13.8224 48.612 14.1483C49.6013 14.7602 50.5369 15.4752 51.294 16.3588C51.7037 16.8587 52.0599 17.423 52.2106 18.0559C52.4529 19.1135 52.5501 20.2021 52.5009 21.2851C52.2062 23.7228 51.8656 26.1904 50.9244 28.4785C49.9697 30.8929 48.3742 33.0756 46.2606 34.6143C43.5586 36.5941 40.3128 37.818 36.9788 38.186C35.0416 38.3645 33.0943 38.2182 31.1526 38.2448C27.803 38.155 24.4378 38.104 21.1172 37.6096C20.5567 37.4865 19.928 37.4688 19.4524 37.1163C18.9924 36.7504 18.8807 36.0498 19.1878 35.5532C20.3222 33.4902 21.2489 31.3241 22.2985 29.2201C22.5296 28.7224 23.1325 28.4541 23.664 28.576C25.7307 28.9363 27.8265 29.1214 29.9222 29.2046C33.2886 29.3143 36.7108 29.1225 39.9588 28.1747C40.8945 27.8588 41.8536 27.5273 42.6542 26.9376C43.2403 26.5031 43.7004 25.9022 43.9527 25.2194C44.3625 24.1352 44.4105 22.9646 44.5824 21.8305C44.7298 21.1865 44.4295 20.5247 43.9962 20.0569C43.572 19.6123 42.9456 19.4882 42.3683 19.3673C40.9425 19.1035 39.405 18.9849 38.0473 19.5946C37.383 19.9061 36.646 20.2863 36.3412 20.9936C36.0666 21.5944 36.1972 22.3316 36.6349 22.8216C37.1887 23.4512 37.9904 23.796 38.7786 24.0388C39.4352 24.2394 40.0213 24.613 40.5651 25.0209C40.8509 25.257 41.1267 25.6484 40.9604 26.0286C40.7527 26.3213 40.4043 26.4776 40.0995 26.6505C38.8065 27.2646 37.3774 27.5318 35.9616 27.6825C34.2432 27.7901 32.5159 27.6482 30.8177 27.3832C30.1243 27.2713 29.4477 26.9653 28.9665 26.4498C28.148 25.5796 27.7517 24.3569 27.8488 23.1752C27.9191 22.0822 28.2999 21.0335 28.7967 20.0646C29.4499 18.8397 30.2739 17.7045 31.2241 16.6913C33.4159 14.4255 36.4998 13.0841 39.644 12.8724Z" fill="#6F3AFA"/>
<path d="M113.225 12.8747C115.346 12.6962 117.548 13.0775 119.397 14.1517C121.875 15.6028 123.655 18.0627 124.577 20.7398C125.557 23.5877 125.469 26.6605 125.138 29.6126C124.898 31.5581 124.451 33.4814 123.769 35.3216C123.509 35.9923 123.044 36.5876 122.438 36.9844C121.951 37.3259 121.368 37.481 120.8 37.6307C118.946 38.0952 117.024 38.2382 115.118 38.1805C113.32 38.1052 111.514 37.8823 109.797 37.3281C108.728 36.9756 107.707 36.4878 106.74 35.9158C106.26 35.612 105.978 35.0389 106.042 34.4758C106.051 34.0013 106.379 33.6322 106.643 33.2697C107.626 31.9184 108.496 30.4906 109.326 29.0428C109.682 28.4076 110.527 28.1016 111.21 28.3732C111.679 28.5683 112.125 28.8189 112.618 28.9619C113.929 29.3953 115.329 29.2191 116.682 29.1581C117.188 29.1725 117.672 28.7768 117.701 28.2646C117.785 26.9366 117.794 25.5609 117.308 24.2993C116.943 23.3371 116.314 22.386 115.315 21.9902C113.82 21.4149 111.987 21.7985 110.876 22.9547C110.133 23.6497 109.743 24.6031 109.286 25.4866C109.057 25.9566 108.804 26.4144 108.588 26.8911C108.395 27.4642 108.048 27.9675 107.76 28.4952C106.765 30.2034 105.723 31.8951 104.464 33.4249C103.441 34.6853 102.088 35.6231 100.73 36.4956C99.178 37.4301 97.4451 38.3213 95.5738 38.1894C93.2648 38.2881 90.9301 37.8325 88.8533 36.8181C87.9388 36.3592 87.8116 35.0256 88.5094 34.3206C89.6829 32.7088 90.6197 30.9395 91.4314 29.1237C91.6313 28.6526 92.0779 28.3023 92.5814 28.2047C93.0571 28.1227 93.5283 28.2657 93.995 28.34C94.8078 28.4741 95.6352 28.4431 96.4547 28.3876C97.0007 28.3777 97.54 28.2535 98.048 28.0562C98.6175 27.8156 99.0172 27.3268 99.427 26.8867C99.9808 26.2914 100.353 25.562 100.738 24.8547C101.948 22.5412 102.956 20.1223 104.338 17.8997C105.177 16.5561 106.307 15.3689 107.699 14.5863C109.384 13.6218 111.29 13.0443 113.225 12.8747Z" fill="#6F3AFA"/>
<path d="M88.1309 16.657C88.4804 16.5572 88.8477 16.5705 89.2095 16.5716C90.6978 16.5749 92.1862 16.5694 93.6756 16.5738C93.8878 16.5661 94.1323 16.6448 94.2306 16.8499C94.3925 17.1414 94.3098 17.4917 94.1982 17.7866C93.1832 20.2209 92.1426 22.6453 91.1377 25.083C90.7168 26.4864 90.1675 27.8488 89.5634 29.1835C88.7059 31.0392 87.7033 32.8539 86.3556 34.4092C85.8811 34.9335 85.3898 35.4645 84.769 35.8215C82.7447 37.0742 80.4446 37.9155 78.063 38.1295C77.1296 38.2281 76.1906 38.176 75.2549 38.1893C73.0475 38.2304 70.8502 37.6705 68.8828 36.6895C68.1872 36.3625 67.9527 35.3792 68.4016 34.7639C69.7213 32.9814 70.7486 31.0026 71.6239 28.9729C71.8383 28.4253 72.4401 28.0606 73.0297 28.1371C73.5075 28.2014 73.9843 28.2911 74.4689 28.2945C75.9773 28.2989 77.4958 28.3333 78.9875 28.0761C79.615 27.9564 80.2615 27.8078 80.793 27.4376C81.8771 26.6738 82.9088 25.7371 83.4124 24.4855C84.463 22.3582 85.5282 20.2365 86.58 18.1103C86.8837 17.4562 87.4174 16.8654 88.1309 16.657Z" fill="#6F3AFA"/>
<path d="M65.7085 37.7726C66.412 37.5842 67.1801 37.6429 67.8456 37.9389C69.852 39.0685 72.2492 39.1073 74.345 40.0086C75.0473 40.2934 75.3577 41.0794 75.3644 41.7867C75.3722 42.8231 75.3622 43.8585 75.3689 44.8939C75.4024 45.8728 74.9658 46.8871 74.1474 47.4558C73.502 47.9069 72.6735 48.0145 71.9065 47.9114C71.2209 47.8482 70.6046 47.5234 69.9659 47.2983C69.0615 46.9735 68.1839 46.5456 67.2259 46.3971C66.2869 46.2364 65.3144 46.2918 64.3955 46.5379C63.0177 46.907 61.6376 47.2706 60.2587 47.6387C59.2583 47.9435 58.173 48.1242 57.1491 47.8216C56.3497 47.6043 55.6998 46.9791 55.4028 46.2175C55.031 45.3795 55.1918 44.4472 55.1561 43.5625C55.1081 42.7212 55.3381 41.8776 55.7155 41.1304C56.2235 40.2269 57.3088 39.9077 58.2746 39.7746C60.4865 39.6239 62.6671 39.074 64.6925 38.1828C65.0274 38.0376 65.3524 37.8657 65.7085 37.7726Z" fill="#6F3AFA"/>
</g>
<defs>
<clipPath id="clip0_56_388">
<rect width="125.388" height="48" rx="12" fill="white"/>
</clipPath>
</defs>
</svg>
