<svg width="48" height="48" viewBox="0 0 48 48" fill="none" xmlns="http://www.w3.org/2000/svg">
<rect x="1" y="1" width="46" height="46" rx="11" stroke="white" stroke-width="2"/>
<path d="M24.336 18.384C23.1911 18.384 22.072 18.7345 21.1201 19.3911C20.1682 20.0476 19.4262 20.9808 18.9881 22.0726C18.55 23.1645 18.4354 24.3659 18.6587 25.525C18.8821 26.6841 19.4334 27.7487 20.2429 28.5844C21.0524 29.42 22.0838 29.9891 23.2067 30.2197C24.3296 30.4502 25.4934 30.3319 26.5512 29.8797C27.6089 29.4274 28.5129 28.6615 29.149 27.6789C29.785 26.6963 30.1245 25.5411 30.1245 24.3593C30.1257 23.5742 29.9768 22.7967 29.6863 22.0712C29.3958 21.3457 28.9695 20.6865 28.4317 20.1314C27.894 19.5763 27.2554 19.1362 26.5526 18.8364C25.8497 18.5365 25.0965 18.3828 24.336 18.384ZM24.336 28.2442C23.5916 28.2442 22.864 28.0163 22.2451 27.5894C21.6262 27.1626 21.1438 26.5558 20.859 25.846C20.5741 25.1361 20.4996 24.355 20.6448 23.6014C20.79 22.8478 21.1485 22.1555 21.6748 21.6122C22.2011 21.0689 22.8717 20.6989 23.6018 20.549C24.3318 20.3991 25.0885 20.476 25.7762 20.7701C26.4639 21.0641 27.0517 21.5621 27.4652 22.2009C27.8788 22.8398 28.0995 23.5909 28.0995 24.3593C28.0995 25.3903 27.7032 26.3793 26.9976 27.1091C26.2921 27.8388 25.3348 28.2499 24.336 28.2519V28.2442ZM31.7115 18.1394C31.7115 18.415 31.6323 18.6844 31.484 18.9136C31.3356 19.1428 31.1248 19.3214 30.8781 19.4269C30.6314 19.5323 30.36 19.5599 30.0981 19.5062C29.8362 19.4524 29.5957 19.3197 29.4069 19.1248C29.2181 18.9299 29.0895 18.6816 29.0374 18.4113C28.9853 18.1409 29.0121 17.8607 29.1143 17.6061C29.2164 17.3515 29.3895 17.1338 29.6115 16.9807C29.8335 16.8276 30.0945 16.7459 30.3615 16.7459C30.5395 16.7456 30.7159 16.7818 30.8803 16.8522C31.0448 16.9226 31.1941 17.0259 31.3197 17.1562C31.4453 17.2864 31.5448 17.441 31.6122 17.6111C31.6797 17.7812 31.714 17.9634 31.713 18.1471L31.7115 18.1394ZM35.55 19.5608C35.5871 17.7488 34.9319 15.9945 33.726 14.6772C32.4473 13.4365 30.7495 12.7609 28.995 12.7944C27.1305 12.6844 21.543 12.6844 19.68 12.7944C17.9255 12.7566 16.2263 13.429 14.946 14.6679C13.7409 15.9876 13.0859 17.743 13.122 19.5562C13.0155 21.4808 13.0155 27.2486 13.122 29.1717C13.0849 30.9837 13.7401 32.738 14.946 34.0553C16.2252 35.2951 17.9226 35.9706 19.677 35.9381C21.5415 36.048 27.129 36.048 28.992 35.9381C30.7474 35.9764 32.4468 35.3001 33.723 34.0553C34.9256 32.7362 35.5812 30.9843 35.55 29.1732C35.652 27.2486 35.652 21.4808 35.55 19.5608ZM33.138 31.2357C32.9464 31.7371 32.657 32.1926 32.2877 32.5737C31.9185 32.9549 31.4773 33.2536 30.9915 33.4514C28.8032 33.9139 26.5646 34.0701 24.336 33.9159C22.1073 34.0677 19.8691 33.9115 17.6805 33.4514C17.195 33.2535 16.7541 32.9546 16.3851 32.5735C16.0161 32.1923 15.7269 31.737 15.5355 31.2357C15.0875 28.9768 14.9361 26.666 15.0855 24.3655C14.9385 22.0649 15.0898 19.7544 15.5355 17.4953C15.7278 16.9954 16.0173 16.5415 16.3863 16.1618C16.7552 15.782 17.1957 15.4843 17.6805 15.2873C19.8687 14.8248 22.1073 14.6685 24.336 14.8228C26.5646 14.671 28.8029 14.8272 30.9915 15.2873C31.4773 15.485 31.9185 15.7838 32.2877 16.1649C32.657 16.5461 32.9464 17.0016 33.138 17.503C33.586 19.7618 33.7374 22.0727 33.588 24.3732C33.7369 26.6712 33.5855 28.9794 33.138 31.2357Z" fill="white"/>
</svg>
