<svg width="72" height="72" viewBox="0 0 72 72" fill="none" xmlns="http://www.w3.org/2000/svg">
<rect width="72" height="72" rx="12" fill="#F4F4F4"/>
<path d="M54.8548 17.1566C53.8548 16.1346 52.3748 15.7566 50.9948 16.1566L18.8148 25.4546C17.3588 25.8586 16.3268 27.0126 16.0488 28.4766C15.7648 29.9686 16.7568 31.8646 18.0528 32.6566L28.1148 38.8006C29.1468 39.4326 30.4788 39.2746 31.3328 38.4186L42.8548 26.8966C43.4348 26.2946 44.3948 26.2946 44.9748 26.8966C45.5548 27.4746 45.5548 28.4166 44.9748 29.0166L33.4328 40.5386C32.5768 41.3946 32.4168 42.7226 33.0468 43.7566L39.1948 53.8566C39.9148 55.0546 41.1548 55.7366 42.5148 55.7366C42.6748 55.7366 42.8548 55.7366 43.0148 55.7146C44.5748 55.5166 45.8148 54.4546 46.2748 52.9546L55.8148 21.0166C56.2348 19.6566 55.8548 18.1766 54.8548 17.1566Z" fill="#6F3AF9"/>
<path opacity="0.4" fill-rule="evenodd" clip-rule="evenodd" d="M18.021 45.6156C17.637 45.6156 17.253 45.4696 16.961 45.1756C16.375 44.5896 16.375 43.6416 16.961 43.0556L19.691 40.3236C20.277 39.7396 21.227 39.7396 21.813 40.3236C22.397 40.9096 22.397 41.8596 21.813 42.4456L19.081 45.1756C18.789 45.4696 18.405 45.6156 18.021 45.6156ZM25.5434 48.0004C25.1594 48.0004 24.7754 47.8544 24.4834 47.5604C23.8974 46.9744 23.8974 46.0264 24.4834 45.4404L27.2134 42.7084C27.7994 42.1244 28.7494 42.1244 29.3354 42.7084C29.9194 43.2944 29.9194 44.2444 29.3354 44.8304L26.6034 47.5604C26.3114 47.8544 25.9274 48.0004 25.5434 48.0004ZM26.0508 55.1364C26.3428 55.4304 26.7268 55.5764 27.1108 55.5764C27.4948 55.5764 27.8788 55.4304 28.1708 55.1364L30.9028 52.4064C31.4868 51.8204 31.4868 50.8704 30.9028 50.2844C30.3168 49.7004 29.3668 49.7004 28.7808 50.2844L26.0508 53.0164C25.4648 53.6024 25.4648 54.5504 26.0508 55.1364Z" fill="#6F3AF9"/>
</svg>
