<svg width="126" height="48" viewBox="0 0 126 48" fill="none" xmlns="http://www.w3.org/2000/svg">
<g clip-path="url(#clip0_56_349)">
<path d="M42.8383 2.70924C43.2816 1.42444 44.3892 0.318113 45.7737 0.107489C46.6658 0.00439463 47.5669 0.0786672 48.4623 0.0542792C49.2205 0.0309997 49.9954 0.192847 50.6318 0.614094C51.6958 1.30694 52.3691 2.50971 52.4886 3.75793C52.5679 4.68356 52.5199 5.61252 52.5344 6.54038C52.5656 7.61123 52.3836 8.70537 51.8086 9.62878C50.5804 8.29409 48.6979 7.58019 46.8858 7.80855C45.5124 7.94823 44.2161 8.62222 43.2872 9.63322C42.711 8.71202 42.5156 7.61234 42.5681 6.54148C42.6217 5.26444 42.4029 3.94195 42.8383 2.70924Z" fill="#01F093"/>
<path d="M61.3974 2.44653C61.9188 1.17614 63.1358 0.147411 64.5483 0.0720302C65.4381 0.0365568 66.3303 0.0598362 67.2202 0.0587277C68.2496 0.0609448 69.2511 0.549813 69.9099 1.33023C70.6256 2.14944 70.9762 3.23803 70.9818 4.31443C70.984 5.24228 70.9874 6.17125 70.9807 7.09799C70.9639 7.98482 70.7317 8.87166 70.2605 9.62769C69.326 8.62667 68.0363 7.94824 66.6652 7.80857C64.852 7.58021 62.965 8.28967 61.7402 9.63212C61.1417 8.68099 60.9709 7.53919 61.0189 6.43508C61.0647 5.10482 60.8413 3.70473 61.3974 2.44653Z" fill="#01F093"/>
<path d="M68.1548 16.7001C68.4574 16.586 68.7868 16.5693 69.1083 16.5704C70.6704 16.5749 72.2324 16.5715 73.7956 16.5727C74.039 16.5516 74.3092 16.6591 74.4086 16.8952C74.5515 17.2289 74.4264 17.5914 74.3003 17.9096C73.3791 20.0923 72.4613 22.2761 71.5424 24.4588C71.3046 24.9643 71.1594 25.5031 70.9864 26.0308C70.274 28.0295 69.4277 29.9872 68.348 31.8185C67.5318 33.1776 66.6006 34.5023 65.369 35.5232C62.7173 37.3213 59.4983 38.3157 56.2781 38.1893C54.0596 38.2758 51.7941 37.9942 49.7665 37.053C49.3545 36.8402 48.8889 36.7005 48.5439 36.3824C48.1385 35.9833 48.1196 35.2749 48.488 34.847C49.8078 33.1997 51.0717 31.487 52.0174 29.597C52.1994 29.26 52.2954 28.8686 52.5612 28.5815C52.8727 28.2401 53.3651 28.0871 53.8195 28.1536C55.4419 28.3576 57.0899 28.341 58.7122 28.1425C59.5552 28.0195 60.4406 27.8466 61.1262 27.3089C62.0283 26.6272 62.9316 25.8545 63.4062 24.8058C64.5048 22.581 65.6169 20.3617 66.7167 18.1368C67.0081 17.5171 67.4882 16.9363 68.1548 16.7001Z" fill="#01F093"/>
<path d="M21.2713 14.7385L21.273 14.7396C22.4186 15.4566 23.3681 16.4755 24.0194 17.6575C24.4222 18.399 24.4445 19.3167 24.314 20.2518C24.0846 21.7104 23.5243 23.1088 22.8811 24.497L22.881 24.497L22.8789 24.5018C22.6732 24.9583 22.4466 25.4051 22.2141 25.8637C22.1818 25.9272 22.1495 25.991 22.1171 26.0551C21.8561 26.5708 21.5918 27.1021 21.3614 27.6533C19.4515 31.3608 17.4153 34.9976 15.3745 38.6427C14.6466 39.9428 13.9182 41.2439 13.1946 42.5497L13.1946 42.5497L13.1919 42.5546C12.6784 43.5065 11.5976 44.1324 10.5012 44.1201L10.4971 44.12C9.71471 44.1178 8.93568 44.1185 8.1577 44.1192C7.04238 44.1202 5.92921 44.1212 4.81147 44.1134C4.58926 44.1104 4.37463 43.9717 4.24574 43.7364C4.11616 43.4999 4.11562 43.2431 4.22991 43.0576L4.23064 43.0564C5.04469 41.7262 5.86227 40.4108 6.68094 39.0936C7.39229 37.9491 8.10445 36.8033 8.81583 35.6454L8.82005 35.6385L8.82404 35.6315C9.79913 33.9233 10.8073 32.2651 11.8195 30.6001C12.6373 29.2549 13.4579 27.9053 14.2659 26.5213L14.2697 26.5147L14.2733 26.5081C14.3281 26.4073 14.3831 26.3063 14.4381 26.2053C14.9468 25.2709 15.4605 24.3275 15.9406 23.3665C16.4572 22.4026 16.568 21.2443 16.2758 20.2028C16.0788 19.4695 15.5076 18.7422 14.6502 18.5542L14.6502 18.5541L14.6425 18.5526C13.99 18.4201 13.3197 18.4239 12.7145 18.4274C12.6083 18.428 12.5041 18.4286 12.4023 18.4284L12.393 18.4284L12.3838 18.4287C10.9962 18.4781 9.33893 18.7095 8.1485 19.79C7.19511 20.6468 7.09178 21.9631 7.03649 22.9157L7.03646 22.9157L7.03622 22.9208C6.998 23.7213 7.16111 24.7866 7.9911 25.4189C8.37122 25.7213 8.79941 25.8717 9.1803 25.9796C9.317 26.0184 9.4423 26.0508 9.56036 26.0813C9.79969 26.1431 10.0093 26.1973 10.2239 26.2813L10.2239 26.2814L10.231 26.284C10.6346 26.4352 10.915 26.5791 11.067 26.7987L11.0685 26.8009C11.0868 26.8269 11.1071 26.9023 11.0674 26.9983L11.0673 26.9983L11.063 27.0093C10.8104 27.6642 10.4617 28.2433 10.0886 28.8629C9.91973 29.1434 9.74582 29.4323 9.57356 29.7402C9.45615 29.9413 9.34203 30.1405 9.22911 30.3376C8.85965 30.9825 8.50303 31.605 8.08603 32.1968L8.08596 32.1967L8.08072 32.2045C7.83378 32.5693 7.43888 32.8324 7.00919 32.9113C5.56852 33.1541 4.02173 32.7192 2.99446 31.7102L2.99227 31.708C1.62185 30.3782 0.918618 28.468 0.644307 26.5306C0.282073 23.5832 0.96808 20.49 2.67121 18.0565C4.56424 15.3776 7.6894 13.6542 10.9635 13.2165C12.1089 13.0755 13.2633 13.09 14.4545 13.1049C14.6568 13.1075 14.8603 13.11 15.0649 13.1118C17.2611 13.1875 19.4626 13.5965 21.2713 14.7385Z" stroke="#212121"/>
<path d="M48.343 14.5697L48.343 14.5697L48.3491 14.5735C49.3106 15.1683 50.1992 15.8505 50.9108 16.6799C51.2958 17.1503 51.5982 17.6438 51.7239 18.1699C51.9543 19.1764 52.0475 20.2126 52.0024 21.2439C51.7078 23.6787 51.372 26.0764 50.4621 28.2883L50.4621 28.2882L50.4595 28.2946C49.5361 30.6301 47.9958 32.7327 45.9664 34.21L45.9652 34.211C43.3381 36.1359 40.1777 37.3291 36.9285 37.6885C35.6903 37.8023 34.4739 37.781 33.2269 37.7591C32.5485 37.7473 31.8611 37.7352 31.1561 37.7447C30.8891 37.7375 30.6224 37.7306 30.3558 37.7237C27.2755 37.644 24.2217 37.5649 21.2073 37.1174C21.0635 37.0864 20.918 37.0619 20.7846 37.0394L20.7707 37.0371C20.6238 37.0123 20.4904 36.9896 20.3618 36.9609C20.1083 36.9044 19.9128 36.8327 19.7574 36.7198C19.5063 36.5143 19.4371 36.1009 19.6132 35.8162L19.6199 35.8053L19.626 35.7941C20.3436 34.4891 20.9876 33.125 21.6236 31.7777C21.9961 30.9887 22.3658 30.2055 22.746 29.4433L22.7462 29.4434L22.7521 29.4307C22.8762 29.1634 23.233 28.9901 23.5523 29.0634L23.5652 29.0663L23.5782 29.0686C25.6723 29.4337 27.7911 29.6204 29.9025 29.7042L29.906 29.7043C33.2989 29.8149 36.78 29.6232 40.099 28.6547L40.109 28.6518L40.1189 28.6485C41.0442 28.336 42.0778 27.9833 42.9508 27.3402L42.952 27.3393C43.6127 26.8495 44.1337 26.1712 44.4211 25.3945C44.7487 24.5271 44.8638 23.5859 44.9696 22.7208C45.0032 22.4454 45.036 22.1776 45.0743 21.9224C45.2616 21.0652 44.8561 20.2494 44.3632 19.7171L44.3633 19.7171L44.3581 19.7116C43.8317 19.1602 43.081 19.0045 42.5457 18.8935C42.5203 18.8882 42.4953 18.8831 42.4709 18.878L42.4709 18.8778L42.4594 18.8757C41.0141 18.6083 39.3468 18.463 37.8426 19.1385L37.8426 19.1384L37.8352 19.1419C37.1966 19.4413 36.2761 19.888 35.8844 20.7906C35.5259 21.5803 35.7004 22.5246 36.2607 23.1531C36.9089 23.8893 37.8215 24.2671 38.6316 24.5166L38.6326 24.5169C39.2028 24.6912 39.7308 25.0208 40.255 25.4133C40.3569 25.4991 40.4392 25.5986 40.4816 25.687C40.5049 25.7355 40.5112 25.7682 40.5107 25.7913C40.46 25.847 40.3906 25.903 40.2959 25.964C40.2076 26.0208 40.1248 26.0659 40.0281 26.1187C39.9795 26.1452 39.9273 26.1736 39.8692 26.2064C38.6585 26.7781 37.3042 27.0362 35.9197 27.1842C34.2525 27.2875 32.5676 27.1501 30.8963 26.8894C30.288 26.791 29.7217 26.5261 29.3321 26.1086L29.3308 26.1073C28.6151 25.3463 28.261 24.2654 28.3472 23.2162L28.3473 23.2162L28.3479 23.2073C28.4122 22.2086 28.7616 21.2299 29.2399 20.2964C29.8705 19.1146 30.6667 18.0172 31.5863 17.0362C33.6836 14.8694 36.6438 13.5774 39.6698 13.3718C42.1081 13.2854 44.5278 13.2567 46.796 13.9309L46.8048 13.9337C47.3871 14.1215 47.9008 14.2872 48.343 14.5697Z" stroke="#212121"/>
<path d="M113.225 12.8747C115.346 12.6962 117.549 13.0775 119.398 14.1517C121.875 15.6028 123.655 18.0627 124.577 20.7398C125.558 23.5877 125.469 26.6605 125.138 29.6126C124.898 31.5581 124.451 33.4814 123.769 35.3216C123.509 35.9923 123.044 36.5876 122.438 36.9844C121.951 37.3259 121.368 37.481 120.8 37.6307C118.946 38.0952 117.024 38.2382 115.118 38.1805C113.32 38.1052 111.514 37.8823 109.798 37.3281C108.728 36.9756 107.707 36.4878 106.74 35.9158C106.26 35.612 105.978 35.0389 106.043 34.4758C106.052 34.0013 106.379 33.6322 106.643 33.2697C107.626 31.9184 108.496 30.4906 109.326 29.0428C109.683 28.4076 110.527 28.1016 111.21 28.3732C111.679 28.5683 112.126 28.8189 112.618 28.9619C113.929 29.3953 115.329 29.2191 116.682 29.1581C117.188 29.1725 117.673 28.7768 117.702 28.2646C117.785 26.9366 117.794 25.5609 117.309 24.2993C116.943 23.3371 116.314 22.386 115.315 21.9902C113.82 21.4149 111.987 21.7985 110.876 22.9547C110.134 23.6497 109.743 24.6031 109.286 25.4866C109.057 25.9566 108.804 26.4144 108.588 26.8911C108.395 27.4642 108.048 27.9675 107.76 28.4952C106.765 30.2034 105.723 31.8951 104.464 33.4249C103.441 34.6853 102.088 35.6231 100.73 36.4956C99.1781 37.4301 97.4452 38.3213 95.5739 38.1894C93.2649 38.2881 90.9302 37.8325 88.8534 36.8181C87.939 36.3592 87.8117 35.0256 88.5095 34.3206C89.683 32.7088 90.6198 30.9395 91.4315 29.1237C91.6314 28.6526 92.078 28.3023 92.5816 28.2047C93.0572 28.1227 93.5284 28.2657 93.9951 28.34C94.8079 28.4741 95.6353 28.4431 96.4548 28.3876C97.0008 28.3777 97.5401 28.2535 98.0481 28.0562C98.6176 27.8156 99.0173 27.3268 99.4271 26.8867C99.9809 26.2914 100.353 25.562 100.738 24.8547C101.948 22.5412 102.956 20.1223 104.338 17.8997C105.177 16.5561 106.307 15.3689 107.7 14.5863C109.384 13.6218 111.29 13.0443 113.225 12.8747Z" fill="#6F3AFA"/>
<path d="M88.1311 16.657C88.4806 16.5572 88.848 16.5705 89.2097 16.5716C90.6981 16.5749 92.1864 16.5694 93.6759 16.5738C93.888 16.5661 94.1326 16.6448 94.2308 16.8499C94.3927 17.1414 94.3101 17.4917 94.1984 17.7866C93.1835 20.2209 92.1429 22.6453 91.138 25.083C90.717 26.4864 90.1677 27.8488 89.5637 29.1835C88.7062 31.0392 87.7035 32.8539 86.3558 34.4092C85.8813 34.9335 85.39 35.4645 84.7692 35.8215C82.7449 37.0742 80.4449 37.9155 78.0633 38.1295C77.1298 38.2281 76.1908 38.176 75.2552 38.1893C73.0478 38.2304 70.8504 37.6705 68.8831 36.6895C68.1874 36.3625 67.953 35.3792 68.4018 34.7639C69.7216 32.9814 70.7488 31.0026 71.6242 28.9729C71.8385 28.4253 72.4404 28.0606 73.0299 28.1371C73.5078 28.2014 73.9845 28.2911 74.4691 28.2945C75.9776 28.2989 77.4961 28.3333 78.9878 28.0761C79.6153 27.9564 80.2617 27.8078 80.7932 27.4376C81.8774 26.6738 82.9091 25.7371 83.4126 24.4855C84.4633 22.3582 85.5285 20.2365 86.5803 18.1103C86.884 17.4562 87.4177 16.8654 88.1311 16.657Z" fill="#6F3AFA"/>
<path d="M65.7087 37.7726C66.4121 37.5842 67.1803 37.6429 67.8457 37.9389C69.8521 39.0685 72.2494 39.1073 74.3451 40.0086C75.0474 40.2934 75.3578 41.0794 75.3645 41.7867C75.3723 42.8231 75.3623 43.8585 75.369 44.8939C75.4025 45.8728 74.9659 46.8871 74.1475 47.4558C73.5021 47.9069 72.6737 48.0145 71.9066 47.9114C71.221 47.8482 70.6047 47.5234 69.966 47.2983C69.0616 46.9735 68.184 46.5456 67.226 46.3971C66.287 46.2364 65.3145 46.2918 64.3956 46.5379C63.0178 46.907 61.6377 47.2706 60.2588 47.6387C59.2584 47.9435 58.1731 48.1242 57.1492 47.8216C56.3498 47.6043 55.7 46.9791 55.403 46.2175C55.0312 45.3795 55.1919 44.4472 55.1562 43.5625C55.1082 42.7212 55.3382 41.8776 55.7156 41.1304C56.2236 40.2269 57.3089 39.9077 58.2747 39.7746C60.4866 39.6239 62.6672 39.074 64.6926 38.1828C65.0276 38.0376 65.3525 37.8657 65.7087 37.7726Z" fill="#6F3AFA"/>
</g>
<defs>
<clipPath id="clip0_56_349">
<rect width="125.388" height="48" rx="12" fill="white"/>
</clipPath>
</defs>
</svg>
