<svg width="400" height="150" viewBox="0 0 400 150" fill="none" xmlns="http://www.w3.org/2000/svg">
<circle opacity="0.28" cx="199.75" cy="75" r="75" transform="rotate(90 199.75 75)" fill="#6F3AF9"/>
<circle cx="199.75" cy="75" r="62.25" transform="rotate(90 199.75 75)" fill="white"/>
<path d="M211.253 44.9994H185.246C175.079 44.9994 168.251 52.1334 168.251 62.7504V87.2514C168.251 97.8654 175.079 104.999 185.246 104.999H211.25C221.417 104.999 228.251 97.8654 228.251 87.2514V62.7504C228.251 52.1334 221.42 44.9994 211.253 44.9994Z" fill="#212121"/>
<path fill-rule="evenodd" clip-rule="evenodd" d="M196.193 72.7455H213.293C214.523 72.7455 215.543 73.7655 215.543 74.9955V80.5455C215.543 81.8055 214.523 82.7955 213.293 82.7955C212.033 82.7955 211.043 81.8055 211.043 80.5455V77.2455H207.053V80.5455C207.053 81.8055 206.033 82.7955 204.803 82.7955C203.543 82.7955 202.553 81.8055 202.553 80.5455V77.2455H196.193C195.233 80.4555 192.293 82.7955 188.783 82.7955C184.463 82.7955 180.953 79.3155 180.953 74.9955C180.953 70.7055 184.463 67.1955 188.783 67.1955C192.293 67.1955 195.233 69.5355 196.193 72.7455ZM185.453 74.9955C185.453 76.8255 186.953 78.2955 188.783 78.2955C190.583 78.2955 192.083 76.8255 192.083 74.9955C192.083 73.1655 190.583 71.6955 188.783 71.6955C186.953 71.6955 185.453 73.1655 185.453 74.9955Z" fill="#00C175"/>
<path opacity="0.1" d="M199.75 137.25C165.37 137.25 137.5 109.38 137.5 75C137.5 40.6203 165.37 12.75 199.75 12.75C234.13 12.75 262 40.6203 262 75C262 109.38 234.13 137.25 199.75 137.25ZM199.75 22.71C170.871 22.71 147.46 46.121 147.46 75C147.46 103.879 170.871 127.29 199.75 127.29C228.629 127.29 252.04 103.879 252.04 75C252.04 46.121 228.629 22.71 199.75 22.71Z" fill="#01F093"/>
<path d="M377.02 67.4994H351.01C340.84 67.4994 334 74.6394 334 85.2594V109.769C334 120.359 340.84 127.499 351.01 127.499H377.02C387.19 127.499 394 120.359 394 109.769V85.2594C394 74.6394 387.19 67.4994 377.02 67.4994Z" fill="#212121"/>
<path d="M374.72 108.943C374.327 108.943 373.931 108.841 373.568 108.628L361.79 101.602C361.112 101.194 360.695 100.459 360.695 99.6669V84.5259C360.695 83.2839 361.703 82.2759 362.945 82.2759C364.187 82.2759 365.195 83.2839 365.195 84.5259V98.3889L375.875 104.758C376.94 105.397 377.291 106.777 376.655 107.845C376.232 108.55 375.485 108.943 374.72 108.943Z" fill="#00C175"/>
<path d="M49.271 67.4994H23.261C13.091 67.4994 6.25098 74.6394 6.25098 85.2594V109.769C6.25098 120.359 13.091 127.499 23.261 127.499H49.271C59.441 127.499 66.251 120.359 66.251 109.769V85.2594C66.251 74.6394 59.441 67.4994 49.271 67.4994Z" fill="#212121"/>
<path d="M32.6903 107.244C32.0183 107.244 31.3463 106.989 30.8333 106.476L23.7143 99.3567C22.6883 98.3307 22.6883 96.6687 23.7143 95.6457C24.7403 94.6197 26.3993 94.6167 27.4253 95.6427L32.6903 100.908L45.0743 88.5237C46.1003 87.4977 47.7593 87.4977 48.7853 88.5237C49.8113 89.5497 49.8113 91.2117 48.7853 92.2377L34.5473 106.476C34.0343 106.989 33.3623 107.244 32.6903 107.244Z" fill="#00C175"/>
<path d="M256 11.625L364 11.625" stroke="#212121" stroke-linejoin="round" stroke-dasharray="18 18"/>
<path d="M363.625 12V39" stroke="#212121" stroke-linejoin="round" stroke-dasharray="18 18"/>
<path d="M35.875 11.625L143.875 11.625" stroke="#212121" stroke-linejoin="round" stroke-dasharray="18 18"/>
<path d="M36.25 12V39" stroke="#212121" stroke-linejoin="round" stroke-dasharray="18 18"/>
<path d="M199.125 123C199.125 122.724 198.901 122.5 198.625 122.5C198.349 122.5 198.125 122.724 198.125 123H199.125ZM198.125 123V141H199.125V123H198.125Z" fill="#212121"/>
<line x1="198.75" y1="9" x2="198.75" y2="27" stroke="#212121"/>
<path d="M246.25 74.125C245.974 74.125 245.75 74.3489 245.75 74.625C245.75 74.9011 245.974 75.125 246.25 75.125V74.125ZM246.25 75.125H264.25V74.125H246.25V75.125Z" fill="#212121"/>
<path d="M132.25 74.125C131.974 74.125 131.75 74.3489 131.75 74.625C131.75 74.9011 131.974 75.125 132.25 75.125V74.125ZM132.25 75.125H150.25V74.125H132.25V75.125Z" fill="#212121"/>
</svg>
