<svg width="48" height="48" viewBox="0 0 48 48" fill="none" xmlns="http://www.w3.org/2000/svg">
<rect x="1" y="1" width="46" height="46" rx="11" stroke="white" stroke-width="2"/>
<path d="M33.468 16.5677L30.144 32.7499C29.8935 33.8926 29.244 34.1759 28.3095 33.6386L23.244 29.7862L20.8005 32.2126C20.6806 32.3734 20.5263 32.5034 20.3496 32.5924C20.1729 32.6813 19.9786 32.7267 19.782 32.7251L20.1465 27.4002L29.5335 18.644C29.9415 18.2678 29.445 18.0603 28.899 18.4366L17.2935 25.9788L12.2985 24.3653C11.211 24.0154 11.1915 23.2443 12.525 22.7055L32.0655 14.9341C32.9715 14.5826 33.762 15.1416 33.468 16.5677Z" fill="white"/>
</svg>
