<svg width="20" height="20" viewBox="0 0 20 20" fill="none" xmlns="http://www.w3.org/2000/svg">
<path d="M17.2041 6.66909V10.6791M19.25 8.67399H15.16M7.87737 13.2062C4.03337 13.2062 0.750366 13.7872 0.750366 16.1152C0.750366 18.4422 4.01237 19.0452 7.87737 19.0452C11.7214 19.0452 15.0044 18.4632 15.0044 16.1362C15.0044 13.8092 11.7424 13.2062 7.87737 13.2062ZM7.87737 9.88589C10.4134 9.88589 12.4454 7.85289 12.4454 5.31789C12.4454 2.78189 10.4134 0.749893 7.87737 0.749893C5.34237 0.749893 3.30937 2.78189 3.30937 5.31789C3.30937 7.85289 5.34237 9.88589 7.87737 9.88589Z" stroke="#212121" stroke-width="1.5" stroke-linecap="round" stroke-linejoin="round"/>
</svg>
