<?xml version="1.0" encoding="UTF-8" ?>
<!DOCTYPE svg PUBLIC "-//W3C//DTD SVG 1.1//EN" "http://www.w3.org/Graphics/SVG/1.1/DTD/svg11.dtd">
<svg width="960pt" height="960pt" viewBox="0 0 960 960" version="1.1" xmlns="http://www.w3.org/2000/svg">
<g id="#ffffffff">
<path fill="#ffffff" opacity="1.00" d=" M 380.12 375.99 C 379.86 367.91 384.84 359.35 392.92 357.19 C 398.19 356.16 403.62 356.69 408.96 356.71 C 418.03 357.23 424.60 366.22 424.61 374.90 C 424.30 383.23 426.06 392.20 421.63 399.79 C 416.29 394.35 408.77 390.94 401.07 391.44 C 394.27 391.71 387.84 394.94 383.20 399.84 C 378.87 392.61 380.37 383.99 380.12 375.99 Z" />
<path fill="#ffffff" opacity="1.00" d=" M 462.74 376.03 C 462.48 367.82 467.63 359.08 475.94 357.09 C 480.87 356.22 485.92 356.71 490.91 356.67 C 500.29 356.80 507.31 366.02 507.25 374.96 C 506.89 383.26 508.74 392.27 504.21 399.79 C 498.80 394.13 490.97 390.80 483.11 391.48 C 476.54 391.89 470.35 395.06 465.88 399.84 C 461.50 392.64 462.99 384.01 462.74 376.03 Z" />
<path fill="#ffffff" opacity="1.00" d=" M 237.65 413.82 C 249.38 412.79 261.45 412.58 272.96 415.42 C 284.44 418.23 295.12 425.91 299.88 436.94 C 302.65 445.94 299.17 455.31 295.81 463.66 C 282.85 492.55 266.67 519.83 251.50 547.59 C 249.10 552.99 243.92 557.18 237.91 557.55 C 229.96 557.74 222.00 557.54 214.05 557.64 C 211.91 557.59 209.42 557.92 207.72 556.29 C 205.52 554.46 205.25 551.00 206.89 548.71 C 215.71 534.27 224.81 520.00 233.23 505.31 C 242.18 490.10 251.90 475.30 259.51 459.34 C 261.37 454.67 261.51 448.75 258.39 444.60 C 255.05 440.84 249.43 441.97 244.96 441.75 C 237.60 441.99 228.56 443.60 224.90 450.85 C 223.15 455.79 222.30 461.66 224.44 466.62 C 227.76 473.37 238.04 470.34 241.35 476.97 C 240.38 483.25 235.73 488.28 232.98 493.91 C 229.96 498.44 228.07 504.72 222.49 506.71 C 215.01 508.62 206.60 506.33 201.15 500.84 C 194.29 494.05 191.05 484.40 189.98 475.00 C 188.42 459.28 193.15 442.60 204.10 430.99 C 212.87 421.62 225.01 415.69 237.65 413.82 Z" />
<path fill="#ffffff" opacity="1.00" d=" M 363.54 414.77 C 374.96 413.87 386.68 413.74 397.87 416.54 C 406.18 418.44 413.35 423.71 418.99 429.96 C 424.21 435.58 424.56 443.72 424.63 450.97 C 423.14 467.45 419.98 484.52 410.32 498.34 C 400.26 512.98 383.79 522.05 366.90 526.46 C 357.19 529.14 347.04 529.21 337.05 528.91 C 322.06 528.82 307.04 528.48 292.11 527.05 C 287.41 526.48 282.62 526.12 278.10 524.66 C 274.91 523.57 273.60 519.36 275.48 516.59 C 280.46 507.35 284.62 497.70 289.26 488.29 C 290.22 486.12 292.71 484.77 295.05 485.25 C 315.31 488.47 336.12 489.53 356.44 486.22 C 364.85 484.67 373.57 482.71 380.67 477.72 C 387.77 472.47 388.02 462.96 389.09 455.00 C 390.06 450.27 386.61 445.30 381.91 444.37 C 374.46 442.51 366.16 441.65 359.03 445.12 C 356.05 446.62 352.77 448.58 351.86 452.04 C 350.85 455.07 352.26 458.39 354.59 460.41 C 359.11 464.54 365.80 464.70 370.44 468.69 C 372.17 469.82 374.28 472.47 372.41 474.39 C 368.62 477.45 363.76 478.78 359.10 479.88 C 348.88 482.29 338.26 481.49 327.98 479.97 C 323.15 479.45 318.84 476.42 316.60 472.14 C 312.38 464.79 314.15 455.69 317.66 448.43 C 322.81 438.03 330.51 428.64 340.58 422.68 C 347.58 418.50 355.45 415.80 363.54 414.77 Z" />
<path fill="#ffffff" opacity="1.00" d=" M 693.56 414.76 C 705.31 413.10 717.87 415.37 727.58 422.42 C 739.75 431.26 747.53 445.40 749.86 460.15 C 751.62 471.29 750.88 482.69 749.31 493.81 C 747.95 501.96 746.15 510.16 742.76 517.72 C 738.84 525.24 729.69 526.51 722.16 527.72 C 703.69 529.98 683.74 528.42 667.58 518.43 C 664.23 516.52 663.24 511.65 665.53 508.56 C 670.36 501.91 674.75 494.95 678.80 487.79 C 680.39 484.41 684.85 482.84 688.16 484.67 C 695.76 488.99 704.74 488.64 713.14 487.71 C 715.31 487.36 716.69 485.14 716.60 483.05 C 717.25 474.40 716.33 464.55 709.84 458.14 C 702.38 451.47 689.72 454.11 684.12 461.98 C 679.01 469.29 676.31 477.95 671.66 485.54 C 665.39 495.96 659.22 506.97 649.54 514.64 C 641.73 520.58 633.24 526.31 623.49 528.33 C 613.09 529.28 602.36 528.50 592.55 524.68 C 589.65 523.44 586.01 522.61 584.54 519.49 C 583.15 516.92 583.72 513.73 585.55 511.54 C 590.91 504.23 595.14 496.18 598.84 487.93 C 600.02 484.76 603.58 482.86 606.87 483.61 C 613.11 484.83 619.59 485.04 625.84 483.80 C 631.04 482.72 634.47 478.18 637.39 474.11 C 645.35 460.89 650.26 445.97 659.27 433.36 C 667.19 422.37 680.51 416.69 693.56 414.76 Z" />
<path fill="#ffffff" opacity="1.00" d=" M 496.26 431.28 C 504.44 430.98 512.66 431.09 520.85 431.23 C 523.38 431.50 523.19 434.83 522.40 436.60 C 518.05 447.19 513.54 457.71 509.19 468.31 C 504.05 483.83 497.67 499.41 486.95 511.97 C 482.80 517.14 476.73 520.13 470.85 522.89 C 461.22 527.27 450.56 529.05 440.01 528.63 C 428.85 529.07 417.47 526.81 407.76 521.17 C 405.14 519.69 404.64 515.77 406.62 513.58 C 413.01 505.40 419.26 496.98 423.52 487.46 C 424.49 484.89 427.12 482.98 429.92 483.34 C 439.72 484.28 449.94 484.65 459.43 481.65 C 465.73 478.56 471.25 473.36 474.08 466.87 C 478.89 457.10 483.72 447.34 488.53 437.58 C 490.07 434.54 492.76 431.77 496.26 431.28 Z" />
<path fill="#ffffff" opacity="1.00" d=" M 585.25 431.27 C 593.19 430.96 601.15 431.16 609.09 431.16 C 611.94 430.91 612.36 434.51 611.34 436.46 C 606.91 447.27 602.28 458.01 597.87 468.83 C 594.17 480.45 589.41 491.81 583.01 502.22 C 579.60 507.56 575.81 512.82 570.81 516.77 C 558.89 524.86 544.44 529.24 530.02 528.63 C 518.78 529.15 507.37 526.89 497.44 521.56 C 494.59 519.85 493.85 515.61 495.92 513.02 C 501.91 504.82 506.43 495.69 510.55 486.44 C 512.19 482.77 516.66 483.01 519.97 483.74 C 528.32 484.24 536.85 484.28 545.09 482.61 C 550.39 481.65 554.52 477.90 558.19 474.22 C 561.20 471.26 562.69 467.25 564.58 463.58 C 568.89 454.87 573.17 446.14 577.50 437.44 C 579.02 434.42 581.77 431.71 585.25 431.27 Z" />
<path fill="#ffffff" opacity="1.00" d=" M 483.60 526.78 C 487.05 525.80 490.86 526.19 494.03 527.88 C 503.04 532.72 513.68 532.85 522.91 537.09 C 526.50 538.94 527.15 543.36 527.01 547.00 C 526.86 552.02 527.32 557.08 526.72 562.08 C 525.78 568.12 520.18 572.95 514.00 572.64 C 505.21 572.36 497.85 566.34 489.16 565.44 C 481.20 564.32 473.68 567.67 466.09 569.43 C 459.46 571.00 452.67 574.06 445.77 572.18 C 440.29 570.95 436.65 565.45 436.52 560.03 C 436.49 553.54 435.72 546.35 439.71 540.75 C 443.06 536.53 448.87 535.87 453.88 535.44 C 464.27 534.53 474.12 530.89 483.60 526.78 Z" />
</g>
</svg>
