<svg xmlns="http://www.w3.org/2000/svg" width="25.546" height="25.829" viewBox="0 0 25.546 25.829">
  <g id="Iconly_Light_Edit_Square" data-name="Iconly/Light/Edit Square" transform="translate(1 1.241)">
    <g id="Edit_Square" data-name="Edit Square" transform="translate(0 0)">
      <path id="Stroke_1" data-name="Stroke 1" d="M10.927,0H6.254C2.41,0,0,2.721,0,6.574V16.966c0,3.853,2.4,6.574,6.254,6.574h11.03c3.856,0,6.255-2.721,6.255-6.574V11.931" transform="translate(0 0.048)" fill="none" stroke="#f9f9f9" stroke-linecap="round" stroke-linejoin="round" stroke-miterlimit="10" stroke-width="2"/>
      <path id="Stroke_3" data-name="Stroke 3" d="M.911,10.213,10.252.872a2.982,2.982,0,0,1,4.214,0l1.521,1.521a2.979,2.979,0,0,1,0,4.214L6.6,15.993a2.714,2.714,0,0,1-1.919.795H0l.117-4.725A2.713,2.713,0,0,1,.911,10.213Z" transform="translate(6.686)" fill="none" stroke="#f9f9f9" stroke-linecap="round" stroke-linejoin="round" stroke-miterlimit="10" stroke-width="2"/>
      <path id="Stroke_5" data-name="Stroke 5" d="M0,0,5.707,5.707" transform="translate(15.519 2.315)" fill="none" stroke="#f9f9f9" stroke-linecap="round" stroke-linejoin="round" stroke-miterlimit="10" stroke-width="2"/>
    </g>
  </g>
</svg>
