<svg xmlns="http://www.w3.org/2000/svg" width="32" height="31" viewBox="0 0 32 31">
  <g id="Group_16472" data-name="Group 16472" transform="translate(0.001)">
    <g id="Ellipse_7" data-name="Ellipse 7" transform="translate(-0.001)" fill="none" stroke="#3a3a3a" stroke-width="1.5">
      <ellipse cx="16" cy="15.5" rx="16" ry="15.5" stroke="none"/>
      <ellipse cx="16" cy="15.5" rx="15.25" ry="14.75" fill="none"/>
    </g>
    <g id="icons8-linkedin" transform="translate(9 8)">
      <path id="Path_260" data-name="Path 260" d="M6.5,20h12A1.5,1.5,0,0,0,20,18.5V6.5A1.5,1.5,0,0,0,18.5,5H6.5A1.5,1.5,0,0,0,5,6.5v12A1.5,1.5,0,0,0,6.5,20Z" transform="translate(-5 -5)" fill="none" stroke="#3a3a3a" stroke-linecap="round" stroke-linejoin="round" stroke-miterlimit="10" stroke-width="1.3"/>
      <path id="Path_261" data-name="Path 261" d="M11,20h2.25v7.125H11Z" transform="translate(-8.75 -14.375)" fill="none" stroke="#3a3a3a" stroke-linecap="round" stroke-linejoin="round" stroke-miterlimit="10" stroke-width="1"/>
      <path id="Path_262" data-name="Path 262" d="M12.125,13.875h0A1.016,1.016,0,0,1,11,12.925,1,1,0,0,1,12.125,12a1.015,1.015,0,0,1,1.125.925A1,1,0,0,1,12.125,13.875Z" transform="translate(-8.75 -9.375)" fill="none" stroke="#3a3a3a" stroke-linecap="round" stroke-linejoin="round" stroke-miterlimit="10" stroke-width="1"/>
      <path id="Path_263" data-name="Path 263" d="M27.125,27.125h-2.25v-3.75a1.35,1.35,0,0,0-1.312-1.516c-.929-.017-1.312.766-1.312,1.516v3.75H20V20h2.25v.96A2.81,2.81,0,0,1,24.43,20c1.487,0,2.7,1.022,2.7,3.1Z" transform="translate(-14.375 -14.375)" fill="none" stroke="#3a3a3a" stroke-linecap="round" stroke-linejoin="round" stroke-miterlimit="10" stroke-width="1"/>
    </g>
  </g>
</svg>
