<svg xmlns="http://www.w3.org/2000/svg" width="32" height="31" viewBox="0 0 32 31">
  <g id="Group_4" data-name="Group 4" transform="translate(0.001)">
    <g id="Ellipse_7" data-name="Ellipse 7" transform="translate(-0.001)" fill="none" stroke="#3a3a3a" stroke-width="1.5">
      <ellipse cx="16" cy="15.5" rx="16" ry="15.5" stroke="none"/>
      <ellipse cx="16" cy="15.5" rx="15.25" ry="14.75" fill="none"/>
    </g>
    <path id="Icon_feather-twitter" data-name="Icon feather-twitter" d="M17.439,4.492A7.9,7.9,0,0,1,15.164,5.6,3.246,3.246,0,0,0,9.469,7.774V8.5a7.723,7.723,0,0,1-6.52-3.282s-2.9,6.52,3.622,9.418A8.433,8.433,0,0,1,1.5,16.084c6.52,3.622,14.49,0,14.49-8.332a3.26,3.26,0,0,0-.058-.6A5.593,5.593,0,0,0,17.439,4.492Z" transform="translate(6.944 5.094)" fill="none" stroke="#3a3a3a" stroke-linecap="round" stroke-linejoin="round" stroke-width="1.3"/>
  </g>
</svg>
