<svg xmlns="http://www.w3.org/2000/svg" width="32" height="31" viewBox="0 0 32 31">
  <g id="Group_16473" data-name="Group 16473" transform="translate(0.001)">
    <g id="Ellipse_6" data-name="Ellipse 6" transform="translate(-0.001)" fill="none" stroke="#3a3a3a" stroke-width="1.5">
      <ellipse cx="16" cy="15.5" rx="16" ry="15.5" stroke="none"/>
      <ellipse cx="16" cy="15.5" rx="15.25" ry="14.75" fill="none"/>
    </g>
    <g id="Iconly_Light_Message" data-name="Iconly/Light/Message" transform="translate(9.298 9.551)">
      <g id="Message">
        <path id="Path_445" d="M7.854,0,4.893,2.384a1.543,1.543,0,0,1-1.906,0L0,0" transform="translate(2.745 3.861)" fill="none" stroke="#3a3a3a" stroke-linecap="round" stroke-linejoin="round" stroke-miterlimit="10" stroke-width="1.3"/>
        <path id="Rectangle_511" d="M3.393,0H9.939a3.441,3.441,0,0,1,2.486,1.1,3.483,3.483,0,0,1,.921,2.571V8.207a3.483,3.483,0,0,1-.921,2.571,3.441,3.441,0,0,1-2.486,1.1H3.393A3.449,3.449,0,0,1,0,8.207V3.675A3.449,3.449,0,0,1,3.393,0Z" fill="none" stroke="#3a3a3a" stroke-linecap="round" stroke-linejoin="round" stroke-miterlimit="10" stroke-width="1.3"/>
      </g>
    </g>
  </g>
</svg>
