<svg xmlns="http://www.w3.org/2000/svg" xmlns:xlink="http://www.w3.org/1999/xlink" width="32" height="31" viewBox="0 0 32 31">
  <defs>
    <clipPath id="clip-path">
      <rect id="Rectangle_832" data-name="Rectangle 832" width="23" height="23" transform="translate(4.498 4)" fill="#fff" stroke="#707070" stroke-width="1"/>
    </clipPath>
  </defs>
  <g id="Group_4" data-name="Group 4" transform="translate(0.001)">
    <g id="Ellipse_7" data-name="Ellipse 7" transform="translate(-0.001)" fill="none" stroke="#3a3a3a" stroke-width="1.5">
      <ellipse cx="16" cy="15.5" rx="16" ry="15.5" stroke="none"/>
      <ellipse cx="16" cy="15.5" rx="15.25" ry="14.75" fill="none"/>
    </g>
    <g id="Mask_Group_1" data-name="Mask Group 1" clip-path="url(#clip-path)">
      <g id="icons8-whatsapp_1_" data-name="icons8-whatsapp (1)" transform="translate(7.846 7.348)">
        <g id="Path_270" data-name="Path 270" fill="none" stroke-miterlimit="10">
          <path d="M6.229,4.9c-.156-.371-.315-.321-.433-.326s-.24-.007-.369-.007a.712.712,0,0,0-.514.238,2.12,2.12,0,0,0-.674,1.586,3.675,3.675,0,0,0,.786,1.967,8.546,8.546,0,0,0,3.289,2.871,11.267,11.267,0,0,0,1.1.4,2.672,2.672,0,0,0,1.213.075,1.984,1.984,0,0,0,1.3-.9,1.569,1.569,0,0,0,.112-.9c-.048-.079-.177-.127-.369-.222s-1.139-.555-1.316-.618-.3-.1-.433.1-.5.618-.609.745-.225.143-.417.048A5.267,5.267,0,0,1,7.344,9,5.73,5.73,0,0,1,6.273,7.682c-.112-.19-.012-.293.084-.388s.192-.222.289-.333a1.282,1.282,0,0,0,.192-.317.347.347,0,0,0-.016-.333C6.774,6.215,6.389,5.279,6.229,4.9Z" stroke="none"/>
          <path d="M 5.426742553710938 4.565221786499023 C 5.55521297454834 4.565221786499023 5.683372497558594 4.566851615905762 5.79554271697998 4.572061538696289 C 5.814066886901855 4.572981834411621 5.833572387695312 4.572525978088379 5.853913307189941 4.572525978088379 C 5.963543891906738 4.572525978088379 6.09715747833252 4.58574390411377 6.228913307189941 4.898482322692871 C 6.389352798461914 5.279352188110352 6.774453163146973 6.21489143371582 6.822062492370605 6.310111999511719 C 6.870323181152344 6.405322074890137 6.90228271484375 6.516521453857422 6.838373184204102 6.64337158203125 C 6.774453163146973 6.770221710205078 6.74250316619873 6.849452018737793 6.64598274230957 6.960651397705078 C 6.549463272094727 7.07185173034668 6.443802833557129 7.208481788635254 6.357063293457031 7.293911933898926 C 6.260542869567871 7.388801574707031 6.160432815551758 7.491521835327148 6.272612571716309 7.681962013244629 C 6.384782791137695 7.872391700744629 6.77119255065918 8.494892120361328 7.343803405761719 8.999021530151367 C 8.078803062438965 9.646961212158203 8.699672698974609 9.847501754760742 8.892063140869141 9.942722320556641 C 9.084453582763672 10.03793239593506 9.196953773498535 10.0219612121582 9.309133529663086 9.895112037658691 C 9.421302795410156 9.767931938171387 9.79011344909668 9.34011173248291 9.918582916259766 9.14967155456543 C 10.04706287384033 8.95924186706543 10.17522239685059 8.990871429443359 10.35195350646973 9.054462432861328 C 10.5286922454834 9.117391586303711 11.47565269470215 9.57750129699707 11.66804313659668 9.672721862792969 C 11.86043357849121 9.767931938171387 11.98891258239746 9.815542221069336 12.03717231750488 9.894782066345215 C 12.08543300628662 9.974021911621094 12.08543300628662 10.3545618057251 11.92500305175781 10.79869174957275 C 11.76456260681152 11.24250221252441 10.99500274658203 11.64815139770508 10.62521362304688 11.70261192321777 C 10.29326248168945 11.75152206420898 9.873262405395508 11.77206230163574 9.412172317504883 11.62728118896484 C 9.132722854614258 11.5395622253418 8.774023056030273 11.4225025177002 8.314562797546387 11.22685241699219 C 6.383152961730957 10.40315246582031 5.121852874755859 8.482822418212891 5.025322914123535 8.355981826782227 C 4.929133415222168 8.228801727294922 4.239132881164551 7.325222015380859 4.239132881164551 6.389351844787598 C 4.239132881164551 5.453481674194336 4.73641300201416 4.993691444396973 4.913152694702148 4.803261756896973 C 5.089893341064453 4.612821578979492 5.298262596130371 4.565221786499023 5.426742553710938 4.565221786499023 Z" stroke="none" fill="#3a3a3a"/>
        </g>
        <path id="Path_271" data-name="Path 271" d="M8.152.978A7.173,7.173,0,0,0,1.97,11.79L.978,15.326l3.676-.911A7.174,7.174,0,1,0,8.152.978Z" fill="none" stroke="#3a3a3a" stroke-linejoin="round" stroke-miterlimit="10" stroke-width="1.3"/>
      </g>
    </g>
  </g>
</svg>
