<svg xmlns="http://www.w3.org/2000/svg" width="32" height="31" viewBox="0 0 32 31">
  <g id="Group_3" data-name="Group 3" transform="translate(0.001)">
    <g id="Ellipse_6" data-name="Ellipse 6" transform="translate(-0.001)" fill="none" stroke="#3a3a3a" stroke-width="1.5">
      <ellipse cx="16" cy="15.5" rx="16" ry="15.5" stroke="none"/>
      <ellipse cx="16" cy="15.5" rx="15.25" ry="14.75" fill="none"/>
    </g>
    <g id="icons8-telegram-app" transform="translate(7.999 9)">
      <path id="Path_257" data-name="Path 257" d="M18.068,7.087,7.75,11.5,4.584,12.858s-.631.219-.581.625.565.591.565.591L7.92,15.221S8.932,18.6,9.132,19.239s.359.657.359.657a.374.374,0,0,0,.355-.049l1.378-1.278-.245-.588.646.215.387-.359,3.377,2.634a.875.875,0,0,0,1.245-.439L18.959,7.907C19.165,6.969,18.552,6.893,18.068,7.087Z" transform="translate(-4 -7)" fill="none" stroke="#3a3a3a" stroke-miterlimit="10" stroke-width="1.3"/>
      <path id="Path_258" data-name="Path 258" d="M15,19.718,23.578,14,17.5,21.148" transform="translate(-11.069 -11.498)" fill="none" stroke="#3a3a3a" stroke-linecap="round" stroke-linejoin="round" stroke-miterlimit="10" stroke-width="1.3"/>
      <path id="Path_259" data-name="Path 259" d="M20,37.217l.536-2.343.157-.686h.428l.426.369.6.516" transform="translate(-14.282 -24.35)" fill="none" stroke="#3a3a3a" stroke-linecap="round" stroke-linejoin="round" stroke-miterlimit="10" stroke-width="1.3"/>
    </g>
  </g>
</svg>
