<?xml version="1.0" ?><svg data-name="Layer 2" id="e22a49d5-b6ae-4f85-a79d-83a2592efd0e" viewBox="0 0 38 38" xmlns="http://www.w3.org/2000/svg"><path d="M29.429,36.744H8.571a5.259,5.259,0,0,1-5.252-5.253V6.508A5.259,5.259,0,0,1,8.571,1.256h13.32A5.238,5.238,0,0,1,25.615,2.8l7.521,7.514a5.231,5.231,0,0,1,1.545,3.729V31.491A5.259,5.259,0,0,1,29.429,36.744ZM8.571,3.756A2.755,2.755,0,0,0,5.819,6.508V31.491a2.756,2.756,0,0,0,2.752,2.753H29.429a2.756,2.756,0,0,0,2.752-2.753V14.04a2.746,2.746,0,0,0-.812-1.959L23.847,4.566a2.749,2.749,0,0,0-1.956-.81Z"/><path d="M32.321,13.72H27.665A5.24,5.24,0,0,1,22.43,8.485V2.509h2.5V8.485a2.738,2.738,0,0,0,2.735,2.735h4.656Z"/><rect height="9.111" rx="1.609" width="9.49" x="12.102" y="16.774"/><path d="M25.9,21.33v3.143c0,.548-.513.89-.924.616l-2.355-1.571-1.208-.806a1.662,1.662,0,0,1,0-2.765l1.208-.8,2.355-1.572c.411-.274.924.069.924.617Z"/></svg>