<?xml version="1.0" standalone="no"?>
<!DOCTYPE svg PUBLIC "-//W3C//DTD SVG 20010904//EN"
 "http://www.w3.org/TR/2001/REC-SVG-20010904/DTD/svg10.dtd">
<svg version="1.0" xmlns="http://www.w3.org/2000/svg"
 width="2000.000000pt" height="2000.000000pt" viewBox="0 0 2000.000000 2000.000000"
 preserveAspectRatio="xMidYMid meet">
<metadata>
Created by potrace 1.14, written by Peter Selinger 2001-2017
</metadata>
<g transform="translate(0.000000,2000.000000) scale(0.100000,-0.100000)"
fill="#000000" stroke="none">
<path d="M2379 19986 c-2 -2 -34 -6 -70 -10 -90 -8 -280 -41 -354 -61 -33 -9
-70 -18 -82 -21 -44 -9 -260 -87 -346 -126 -538 -241 -985 -668 -1243 -1188
-132 -266 -195 -465 -248 -782 -2 -15 -8 -62 -13 -105 -10 -100 -11 -15327 0
-15410 4 -34 10 -70 12 -81 2 -11 6 -42 10 -69 4 -26 20 -102 37 -168 16 -66
31 -127 33 -135 6 -24 61 -180 83 -235 37 -93 89 -200 141 -289 28 -49 51 -90
51 -92 0 -11 162 -230 224 -304 368 -439 899 -753 1451 -859 276 -53 -257 -50
7985 -47 4205 1 7656 5 7670 8 14 3 48 9 75 12 68 9 96 14 195 36 671 150
1244 551 1611 1130 147 232 293 577 333 790 2 14 11 61 20 105 15 81 19 106
35 230 11 84 9 15330 -2 15390 -4 22 -12 73 -17 113 -25 185 -98 439 -183 632
-307 706 -915 1236 -1658 1445 -51 15 -103 29 -114 31 -108 22 -188 36 -230
40 -27 3 -61 8 -75 12 -25 7 -15323 15 -15331 8z"/>
</g>
</svg>
